<?xml version="1.0" encoding="utf-8" standalone="no"?>
<!DOCTYPE svg PUBLIC "-//W3C//DTD SVG 1.1//EN"
  "http://www.w3.org/Graphics/SVG/1.1/DTD/svg11.dtd">
<!-- Created with matplotlib (https://matplotlib.org/) -->
<svg height="576pt" version="1.1" viewBox="0 0 1440 576" width="1440pt" xmlns="http://www.w3.org/2000/svg" xmlns:xlink="http://www.w3.org/1999/xlink">
 <defs>
  <style type="text/css">
*{stroke-linecap:butt;stroke-linejoin:round;}
  </style>
 </defs>
 <g id="figure_1">
  <g id="patch_1">
   <path d="M 0 576 
L 1440 576 
L 1440 0 
L 0 0 
z
" style="fill:#ffffff;"/>
  </g>
  <g id="axes_1">
   <g id="patch_2">
    <path d="M 50.52 537.54 
L 1243.03 537.54 
L 1243.03 26.88 
L 50.52 26.88 
z
" style="fill:#ffffff;"/>
   </g>
   <g id="matplotlib.axis_1">
    <g id="xtick_1">
     <g id="line2d_1">
      <path clip-path="url(#p202419c8e0)" d="M 104.725 537.54 
L 104.725 26.88 
" style="fill:none;stroke:#cccccc;stroke-linecap:round;stroke-width:0.8;"/>
     </g>
     <g id="line2d_2"/>
     <g id="text_1">
      <!-- 0 -->
      <defs>
       <path d="M 31.78125 66.40625 
Q 24.171875 66.40625 20.328125 58.90625 
Q 16.5 51.421875 16.5 36.375 
Q 16.5 21.390625 20.328125 13.890625 
Q 24.171875 6.390625 31.78125 6.390625 
Q 39.453125 6.390625 43.28125 13.890625 
Q 47.125 21.390625 47.125 36.375 
Q 47.125 51.421875 43.28125 58.90625 
Q 39.453125 66.40625 31.78125 66.40625 
z
M 31.78125 74.21875 
Q 44.046875 74.21875 50.515625 64.515625 
Q 56.984375 54.828125 56.984375 36.375 
Q 56.984375 17.96875 50.515625 8.265625 
Q 44.046875 -1.421875 31.78125 -1.421875 
Q 19.53125 -1.421875 13.0625 8.265625 
Q 6.59375 17.96875 6.59375 36.375 
Q 6.59375 54.828125 13.0625 64.515625 
Q 19.53125 74.21875 31.78125 74.21875 
z
" id="DejaVuSans-48"/>
      </defs>
      <g style="fill:#262626;" transform="translate(101.54375 548.638438)scale(0.1 -0.1)">
       <use xlink:href="#DejaVuSans-48"/>
      </g>
     </g>
    </g>
    <g id="xtick_2">
     <g id="line2d_3">
      <path clip-path="url(#p202419c8e0)" d="M 347.796749 537.54 
L 347.796749 26.88 
" style="fill:none;stroke:#cccccc;stroke-linecap:round;stroke-width:0.8;"/>
     </g>
     <g id="line2d_4"/>
     <g id="text_2">
      <!-- 100 -->
      <defs>
       <path d="M 12.40625 8.296875 
L 28.515625 8.296875 
L 28.515625 63.921875 
L 10.984375 60.40625 
L 10.984375 69.390625 
L 28.421875 72.90625 
L 38.28125 72.90625 
L 38.28125 8.296875 
L 54.390625 8.296875 
L 54.390625 0 
L 12.40625 0 
z
" id="DejaVuSans-49"/>
      </defs>
      <g style="fill:#262626;" transform="translate(338.252999 548.638438)scale(0.1 -0.1)">
       <use xlink:href="#DejaVuSans-49"/>
       <use x="63.623047" xlink:href="#DejaVuSans-48"/>
       <use x="127.246094" xlink:href="#DejaVuSans-48"/>
      </g>
     </g>
    </g>
    <g id="xtick_3">
     <g id="line2d_5">
      <path clip-path="url(#p202419c8e0)" d="M 590.868498 537.54 
L 590.868498 26.88 
" style="fill:none;stroke:#cccccc;stroke-linecap:round;stroke-width:0.8;"/>
     </g>
     <g id="line2d_6"/>
     <g id="text_3">
      <!-- 200 -->
      <defs>
       <path d="M 19.1875 8.296875 
L 53.609375 8.296875 
L 53.609375 0 
L 7.328125 0 
L 7.328125 8.296875 
Q 12.9375 14.109375 22.625 23.890625 
Q 32.328125 33.6875 34.8125 36.53125 
Q 39.546875 41.84375 41.421875 45.53125 
Q 43.3125 49.21875 43.3125 52.78125 
Q 43.3125 58.59375 39.234375 62.25 
Q 35.15625 65.921875 28.609375 65.921875 
Q 23.96875 65.921875 18.8125 64.3125 
Q 13.671875 62.703125 7.8125 59.421875 
L 7.8125 69.390625 
Q 13.765625 71.78125 18.9375 73 
Q 24.125 74.21875 28.421875 74.21875 
Q 39.75 74.21875 46.484375 68.546875 
Q 53.21875 62.890625 53.21875 53.421875 
Q 53.21875 48.921875 51.53125 44.890625 
Q 49.859375 40.875 45.40625 35.40625 
Q 44.1875 33.984375 37.640625 27.21875 
Q 31.109375 20.453125 19.1875 8.296875 
z
" id="DejaVuSans-50"/>
      </defs>
      <g style="fill:#262626;" transform="translate(581.324748 548.638438)scale(0.1 -0.1)">
       <use xlink:href="#DejaVuSans-50"/>
       <use x="63.623047" xlink:href="#DejaVuSans-48"/>
       <use x="127.246094" xlink:href="#DejaVuSans-48"/>
      </g>
     </g>
    </g>
    <g id="xtick_4">
     <g id="line2d_7">
      <path clip-path="url(#p202419c8e0)" d="M 833.940247 537.54 
L 833.940247 26.88 
" style="fill:none;stroke:#cccccc;stroke-linecap:round;stroke-width:0.8;"/>
     </g>
     <g id="line2d_8"/>
     <g id="text_4">
      <!-- 300 -->
      <defs>
       <path d="M 40.578125 39.3125 
Q 47.65625 37.796875 51.625 33 
Q 55.609375 28.21875 55.609375 21.1875 
Q 55.609375 10.40625 48.1875 4.484375 
Q 40.765625 -1.421875 27.09375 -1.421875 
Q 22.515625 -1.421875 17.65625 -0.515625 
Q 12.796875 0.390625 7.625 2.203125 
L 7.625 11.71875 
Q 11.71875 9.328125 16.59375 8.109375 
Q 21.484375 6.890625 26.8125 6.890625 
Q 36.078125 6.890625 40.9375 10.546875 
Q 45.796875 14.203125 45.796875 21.1875 
Q 45.796875 27.640625 41.28125 31.265625 
Q 36.765625 34.90625 28.71875 34.90625 
L 20.21875 34.90625 
L 20.21875 43.015625 
L 29.109375 43.015625 
Q 36.375 43.015625 40.234375 45.921875 
Q 44.09375 48.828125 44.09375 54.296875 
Q 44.09375 59.90625 40.109375 62.90625 
Q 36.140625 65.921875 28.71875 65.921875 
Q 24.65625 65.921875 20.015625 65.03125 
Q 15.375 64.15625 9.8125 62.3125 
L 9.8125 71.09375 
Q 15.4375 72.65625 20.34375 73.4375 
Q 25.25 74.21875 29.59375 74.21875 
Q 40.828125 74.21875 47.359375 69.109375 
Q 53.90625 64.015625 53.90625 55.328125 
Q 53.90625 49.265625 50.4375 45.09375 
Q 46.96875 40.921875 40.578125 39.3125 
z
" id="DejaVuSans-51"/>
      </defs>
      <g style="fill:#262626;" transform="translate(824.396497 548.638438)scale(0.1 -0.1)">
       <use xlink:href="#DejaVuSans-51"/>
       <use x="63.623047" xlink:href="#DejaVuSans-48"/>
       <use x="127.246094" xlink:href="#DejaVuSans-48"/>
      </g>
     </g>
    </g>
    <g id="xtick_5">
     <g id="line2d_9">
      <path clip-path="url(#p202419c8e0)" d="M 1077.011996 537.54 
L 1077.011996 26.88 
" style="fill:none;stroke:#cccccc;stroke-linecap:round;stroke-width:0.8;"/>
     </g>
     <g id="line2d_10"/>
     <g id="text_5">
      <!-- 400 -->
      <defs>
       <path d="M 37.796875 64.3125 
L 12.890625 25.390625 
L 37.796875 25.390625 
z
M 35.203125 72.90625 
L 47.609375 72.90625 
L 47.609375 25.390625 
L 58.015625 25.390625 
L 58.015625 17.1875 
L 47.609375 17.1875 
L 47.609375 0 
L 37.796875 0 
L 37.796875 17.1875 
L 4.890625 17.1875 
L 4.890625 26.703125 
z
" id="DejaVuSans-52"/>
      </defs>
      <g style="fill:#262626;" transform="translate(1067.468246 548.638438)scale(0.1 -0.1)">
       <use xlink:href="#DejaVuSans-52"/>
       <use x="63.623047" xlink:href="#DejaVuSans-48"/>
       <use x="127.246094" xlink:href="#DejaVuSans-48"/>
      </g>
     </g>
    </g>
    <g id="text_6">
     <!-- Reference position -->
     <defs>
      <path d="M 44.390625 34.1875 
Q 47.5625 33.109375 50.5625 29.59375 
Q 53.5625 26.078125 56.59375 19.921875 
L 66.609375 0 
L 56 0 
L 46.6875 18.703125 
Q 43.0625 26.03125 39.671875 28.421875 
Q 36.28125 30.8125 30.421875 30.8125 
L 19.671875 30.8125 
L 19.671875 0 
L 9.8125 0 
L 9.8125 72.90625 
L 32.078125 72.90625 
Q 44.578125 72.90625 50.734375 67.671875 
Q 56.890625 62.453125 56.890625 51.90625 
Q 56.890625 45.015625 53.6875 40.46875 
Q 50.484375 35.9375 44.390625 34.1875 
z
M 19.671875 64.796875 
L 19.671875 38.921875 
L 32.078125 38.921875 
Q 39.203125 38.921875 42.84375 42.21875 
Q 46.484375 45.515625 46.484375 51.90625 
Q 46.484375 58.296875 42.84375 61.546875 
Q 39.203125 64.796875 32.078125 64.796875 
z
" id="DejaVuSans-82"/>
      <path d="M 56.203125 29.59375 
L 56.203125 25.203125 
L 14.890625 25.203125 
Q 15.484375 15.921875 20.484375 11.0625 
Q 25.484375 6.203125 34.421875 6.203125 
Q 39.59375 6.203125 44.453125 7.46875 
Q 49.3125 8.734375 54.109375 11.28125 
L 54.109375 2.78125 
Q 49.265625 0.734375 44.1875 -0.34375 
Q 39.109375 -1.421875 33.890625 -1.421875 
Q 20.796875 -1.421875 13.15625 6.1875 
Q 5.515625 13.8125 5.515625 26.8125 
Q 5.515625 40.234375 12.765625 48.109375 
Q 20.015625 56 32.328125 56 
Q 43.359375 56 49.78125 48.890625 
Q 56.203125 41.796875 56.203125 29.59375 
z
M 47.21875 32.234375 
Q 47.125 39.59375 43.09375 43.984375 
Q 39.0625 48.390625 32.421875 48.390625 
Q 24.90625 48.390625 20.390625 44.140625 
Q 15.875 39.890625 15.1875 32.171875 
z
" id="DejaVuSans-101"/>
      <path d="M 37.109375 75.984375 
L 37.109375 68.5 
L 28.515625 68.5 
Q 23.6875 68.5 21.796875 66.546875 
Q 19.921875 64.59375 19.921875 59.515625 
L 19.921875 54.6875 
L 34.71875 54.6875 
L 34.71875 47.703125 
L 19.921875 47.703125 
L 19.921875 0 
L 10.890625 0 
L 10.890625 47.703125 
L 2.296875 47.703125 
L 2.296875 54.6875 
L 10.890625 54.6875 
L 10.890625 58.5 
Q 10.890625 67.625 15.140625 71.796875 
Q 19.390625 75.984375 28.609375 75.984375 
z
" id="DejaVuSans-102"/>
      <path d="M 41.109375 46.296875 
Q 39.59375 47.171875 37.8125 47.578125 
Q 36.03125 48 33.890625 48 
Q 26.265625 48 22.1875 43.046875 
Q 18.109375 38.09375 18.109375 28.8125 
L 18.109375 0 
L 9.078125 0 
L 9.078125 54.6875 
L 18.109375 54.6875 
L 18.109375 46.1875 
Q 20.953125 51.171875 25.484375 53.578125 
Q 30.03125 56 36.53125 56 
Q 37.453125 56 38.578125 55.875 
Q 39.703125 55.765625 41.0625 55.515625 
z
" id="DejaVuSans-114"/>
      <path d="M 54.890625 33.015625 
L 54.890625 0 
L 45.90625 0 
L 45.90625 32.71875 
Q 45.90625 40.484375 42.875 44.328125 
Q 39.84375 48.1875 33.796875 48.1875 
Q 26.515625 48.1875 22.3125 43.546875 
Q 18.109375 38.921875 18.109375 30.90625 
L 18.109375 0 
L 9.078125 0 
L 9.078125 54.6875 
L 18.109375 54.6875 
L 18.109375 46.1875 
Q 21.34375 51.125 25.703125 53.5625 
Q 30.078125 56 35.796875 56 
Q 45.21875 56 50.046875 50.171875 
Q 54.890625 44.34375 54.890625 33.015625 
z
" id="DejaVuSans-110"/>
      <path d="M 48.78125 52.59375 
L 48.78125 44.1875 
Q 44.96875 46.296875 41.140625 47.34375 
Q 37.3125 48.390625 33.40625 48.390625 
Q 24.65625 48.390625 19.8125 42.84375 
Q 14.984375 37.3125 14.984375 27.296875 
Q 14.984375 17.28125 19.8125 11.734375 
Q 24.65625 6.203125 33.40625 6.203125 
Q 37.3125 6.203125 41.140625 7.25 
Q 44.96875 8.296875 48.78125 10.40625 
L 48.78125 2.09375 
Q 45.015625 0.34375 40.984375 -0.53125 
Q 36.96875 -1.421875 32.421875 -1.421875 
Q 20.0625 -1.421875 12.78125 6.34375 
Q 5.515625 14.109375 5.515625 27.296875 
Q 5.515625 40.671875 12.859375 48.328125 
Q 20.21875 56 33.015625 56 
Q 37.15625 56 41.109375 55.140625 
Q 45.0625 54.296875 48.78125 52.59375 
z
" id="DejaVuSans-99"/>
      <path id="DejaVuSans-32"/>
      <path d="M 18.109375 8.203125 
L 18.109375 -20.796875 
L 9.078125 -20.796875 
L 9.078125 54.6875 
L 18.109375 54.6875 
L 18.109375 46.390625 
Q 20.953125 51.265625 25.265625 53.625 
Q 29.59375 56 35.59375 56 
Q 45.5625 56 51.78125 48.09375 
Q 58.015625 40.1875 58.015625 27.296875 
Q 58.015625 14.40625 51.78125 6.484375 
Q 45.5625 -1.421875 35.59375 -1.421875 
Q 29.59375 -1.421875 25.265625 0.953125 
Q 20.953125 3.328125 18.109375 8.203125 
z
M 48.6875 27.296875 
Q 48.6875 37.203125 44.609375 42.84375 
Q 40.53125 48.484375 33.40625 48.484375 
Q 26.265625 48.484375 22.1875 42.84375 
Q 18.109375 37.203125 18.109375 27.296875 
Q 18.109375 17.390625 22.1875 11.75 
Q 26.265625 6.109375 33.40625 6.109375 
Q 40.53125 6.109375 44.609375 11.75 
Q 48.6875 17.390625 48.6875 27.296875 
z
" id="DejaVuSans-112"/>
      <path d="M 30.609375 48.390625 
Q 23.390625 48.390625 19.1875 42.75 
Q 14.984375 37.109375 14.984375 27.296875 
Q 14.984375 17.484375 19.15625 11.84375 
Q 23.34375 6.203125 30.609375 6.203125 
Q 37.796875 6.203125 41.984375 11.859375 
Q 46.1875 17.53125 46.1875 27.296875 
Q 46.1875 37.015625 41.984375 42.703125 
Q 37.796875 48.390625 30.609375 48.390625 
z
M 30.609375 56 
Q 42.328125 56 49.015625 48.375 
Q 55.71875 40.765625 55.71875 27.296875 
Q 55.71875 13.875 49.015625 6.21875 
Q 42.328125 -1.421875 30.609375 -1.421875 
Q 18.84375 -1.421875 12.171875 6.21875 
Q 5.515625 13.875 5.515625 27.296875 
Q 5.515625 40.765625 12.171875 48.375 
Q 18.84375 56 30.609375 56 
z
" id="DejaVuSans-111"/>
      <path d="M 44.28125 53.078125 
L 44.28125 44.578125 
Q 40.484375 46.53125 36.375 47.5 
Q 32.28125 48.484375 27.875 48.484375 
Q 21.1875 48.484375 17.84375 46.4375 
Q 14.5 44.390625 14.5 40.28125 
Q 14.5 37.15625 16.890625 35.375 
Q 19.28125 33.59375 26.515625 31.984375 
L 29.59375 31.296875 
Q 39.15625 29.25 43.1875 25.515625 
Q 47.21875 21.78125 47.21875 15.09375 
Q 47.21875 7.46875 41.1875 3.015625 
Q 35.15625 -1.421875 24.609375 -1.421875 
Q 20.21875 -1.421875 15.453125 -0.5625 
Q 10.6875 0.296875 5.421875 2 
L 5.421875 11.28125 
Q 10.40625 8.6875 15.234375 7.390625 
Q 20.0625 6.109375 24.8125 6.109375 
Q 31.15625 6.109375 34.5625 8.28125 
Q 37.984375 10.453125 37.984375 14.40625 
Q 37.984375 18.0625 35.515625 20.015625 
Q 33.0625 21.96875 24.703125 23.78125 
L 21.578125 24.515625 
Q 13.234375 26.265625 9.515625 29.90625 
Q 5.8125 33.546875 5.8125 39.890625 
Q 5.8125 47.609375 11.28125 51.796875 
Q 16.75 56 26.8125 56 
Q 31.78125 56 36.171875 55.265625 
Q 40.578125 54.546875 44.28125 53.078125 
z
" id="DejaVuSans-115"/>
      <path d="M 9.421875 54.6875 
L 18.40625 54.6875 
L 18.40625 0 
L 9.421875 0 
z
M 9.421875 75.984375 
L 18.40625 75.984375 
L 18.40625 64.59375 
L 9.421875 64.59375 
z
" id="DejaVuSans-105"/>
      <path d="M 18.3125 70.21875 
L 18.3125 54.6875 
L 36.8125 54.6875 
L 36.8125 47.703125 
L 18.3125 47.703125 
L 18.3125 18.015625 
Q 18.3125 11.328125 20.140625 9.421875 
Q 21.96875 7.515625 27.59375 7.515625 
L 36.8125 7.515625 
L 36.8125 0 
L 27.59375 0 
Q 17.1875 0 13.234375 3.875 
Q 9.28125 7.765625 9.28125 18.015625 
L 9.28125 47.703125 
L 2.6875 47.703125 
L 2.6875 54.6875 
L 9.28125 54.6875 
L 9.28125 70.21875 
z
" id="DejaVuSans-116"/>
     </defs>
     <g style="fill:#262626;" transform="translate(599.871875 562.316563)scale(0.1 -0.1)">
      <use xlink:href="#DejaVuSans-82"/>
      <use x="69.419922" xlink:href="#DejaVuSans-101"/>
      <use x="130.943359" xlink:href="#DejaVuSans-102"/>
      <use x="166.148438" xlink:href="#DejaVuSans-101"/>
      <use x="227.671875" xlink:href="#DejaVuSans-114"/>
      <use x="268.753906" xlink:href="#DejaVuSans-101"/>
      <use x="330.277344" xlink:href="#DejaVuSans-110"/>
      <use x="393.65625" xlink:href="#DejaVuSans-99"/>
      <use x="448.636719" xlink:href="#DejaVuSans-101"/>
      <use x="510.160156" xlink:href="#DejaVuSans-32"/>
      <use x="541.947266" xlink:href="#DejaVuSans-112"/>
      <use x="605.423828" xlink:href="#DejaVuSans-111"/>
      <use x="666.605469" xlink:href="#DejaVuSans-115"/>
      <use x="718.705078" xlink:href="#DejaVuSans-105"/>
      <use x="746.488281" xlink:href="#DejaVuSans-116"/>
      <use x="785.697266" xlink:href="#DejaVuSans-105"/>
      <use x="813.480469" xlink:href="#DejaVuSans-111"/>
      <use x="874.662109" xlink:href="#DejaVuSans-110"/>
     </g>
    </g>
   </g>
   <g id="matplotlib.axis_2">
    <g id="ytick_1">
     <g id="line2d_11">
      <path clip-path="url(#p202419c8e0)" d="M 50.52 514.328182 
L 1243.03 514.328182 
" style="fill:none;stroke:#cccccc;stroke-linecap:round;stroke-width:0.8;"/>
     </g>
     <g id="line2d_12"/>
     <g id="text_7">
      <!-- 0.0 -->
      <defs>
       <path d="M 10.6875 12.40625 
L 21 12.40625 
L 21 0 
L 10.6875 0 
z
" id="DejaVuSans-46"/>
      </defs>
      <g style="fill:#262626;" transform="translate(31.116875 518.127401)scale(0.1 -0.1)">
       <use xlink:href="#DejaVuSans-48"/>
       <use x="63.623047" xlink:href="#DejaVuSans-46"/>
       <use x="95.410156" xlink:href="#DejaVuSans-48"/>
      </g>
     </g>
    </g>
    <g id="ytick_2">
     <g id="line2d_13">
      <path clip-path="url(#p202419c8e0)" d="M 50.52 454.8599 
L 1243.03 454.8599 
" style="fill:none;stroke:#cccccc;stroke-linecap:round;stroke-width:0.8;"/>
     </g>
     <g id="line2d_14"/>
     <g id="text_8">
      <!-- 2.5 -->
      <defs>
       <path d="M 10.796875 72.90625 
L 49.515625 72.90625 
L 49.515625 64.59375 
L 19.828125 64.59375 
L 19.828125 46.734375 
Q 21.96875 47.46875 24.109375 47.828125 
Q 26.265625 48.1875 28.421875 48.1875 
Q 40.625 48.1875 47.75 41.5 
Q 54.890625 34.8125 54.890625 23.390625 
Q 54.890625 11.625 47.5625 5.09375 
Q 40.234375 -1.421875 26.90625 -1.421875 
Q 22.3125 -1.421875 17.546875 -0.640625 
Q 12.796875 0.140625 7.71875 1.703125 
L 7.71875 11.625 
Q 12.109375 9.234375 16.796875 8.0625 
Q 21.484375 6.890625 26.703125 6.890625 
Q 35.15625 6.890625 40.078125 11.328125 
Q 45.015625 15.765625 45.015625 23.390625 
Q 45.015625 31 40.078125 35.4375 
Q 35.15625 39.890625 26.703125 39.890625 
Q 22.75 39.890625 18.8125 39.015625 
Q 14.890625 38.140625 10.796875 36.28125 
z
" id="DejaVuSans-53"/>
      </defs>
      <g style="fill:#262626;" transform="translate(31.116875 458.659119)scale(0.1 -0.1)">
       <use xlink:href="#DejaVuSans-50"/>
       <use x="63.623047" xlink:href="#DejaVuSans-46"/>
       <use x="95.410156" xlink:href="#DejaVuSans-53"/>
      </g>
     </g>
    </g>
    <g id="ytick_3">
     <g id="line2d_15">
      <path clip-path="url(#p202419c8e0)" d="M 50.52 395.391619 
L 1243.03 395.391619 
" style="fill:none;stroke:#cccccc;stroke-linecap:round;stroke-width:0.8;"/>
     </g>
     <g id="line2d_16"/>
     <g id="text_9">
      <!-- 5.0 -->
      <g style="fill:#262626;" transform="translate(31.116875 399.190837)scale(0.1 -0.1)">
       <use xlink:href="#DejaVuSans-53"/>
       <use x="63.623047" xlink:href="#DejaVuSans-46"/>
       <use x="95.410156" xlink:href="#DejaVuSans-48"/>
      </g>
     </g>
    </g>
    <g id="ytick_4">
     <g id="line2d_17">
      <path clip-path="url(#p202419c8e0)" d="M 50.52 335.923337 
L 1243.03 335.923337 
" style="fill:none;stroke:#cccccc;stroke-linecap:round;stroke-width:0.8;"/>
     </g>
     <g id="line2d_18"/>
     <g id="text_10">
      <!-- 7.5 -->
      <defs>
       <path d="M 8.203125 72.90625 
L 55.078125 72.90625 
L 55.078125 68.703125 
L 28.609375 0 
L 18.3125 0 
L 43.21875 64.59375 
L 8.203125 64.59375 
z
" id="DejaVuSans-55"/>
      </defs>
      <g style="fill:#262626;" transform="translate(31.116875 339.722556)scale(0.1 -0.1)">
       <use xlink:href="#DejaVuSans-55"/>
       <use x="63.623047" xlink:href="#DejaVuSans-46"/>
       <use x="95.410156" xlink:href="#DejaVuSans-53"/>
      </g>
     </g>
    </g>
    <g id="ytick_5">
     <g id="line2d_19">
      <path clip-path="url(#p202419c8e0)" d="M 50.52 276.455056 
L 1243.03 276.455056 
" style="fill:none;stroke:#cccccc;stroke-linecap:round;stroke-width:0.8;"/>
     </g>
     <g id="line2d_20"/>
     <g id="text_11">
      <!-- 10.0 -->
      <g style="fill:#262626;" transform="translate(24.754375 280.254274)scale(0.1 -0.1)">
       <use xlink:href="#DejaVuSans-49"/>
       <use x="63.623047" xlink:href="#DejaVuSans-48"/>
       <use x="127.246094" xlink:href="#DejaVuSans-46"/>
       <use x="159.033203" xlink:href="#DejaVuSans-48"/>
      </g>
     </g>
    </g>
    <g id="ytick_6">
     <g id="line2d_21">
      <path clip-path="url(#p202419c8e0)" d="M 50.52 216.986774 
L 1243.03 216.986774 
" style="fill:none;stroke:#cccccc;stroke-linecap:round;stroke-width:0.8;"/>
     </g>
     <g id="line2d_22"/>
     <g id="text_12">
      <!-- 12.5 -->
      <g style="fill:#262626;" transform="translate(24.754375 220.785993)scale(0.1 -0.1)">
       <use xlink:href="#DejaVuSans-49"/>
       <use x="63.623047" xlink:href="#DejaVuSans-50"/>
       <use x="127.246094" xlink:href="#DejaVuSans-46"/>
       <use x="159.033203" xlink:href="#DejaVuSans-53"/>
      </g>
     </g>
    </g>
    <g id="ytick_7">
     <g id="line2d_23">
      <path clip-path="url(#p202419c8e0)" d="M 50.52 157.518493 
L 1243.03 157.518493 
" style="fill:none;stroke:#cccccc;stroke-linecap:round;stroke-width:0.8;"/>
     </g>
     <g id="line2d_24"/>
     <g id="text_13">
      <!-- 15.0 -->
      <g style="fill:#262626;" transform="translate(24.754375 161.317711)scale(0.1 -0.1)">
       <use xlink:href="#DejaVuSans-49"/>
       <use x="63.623047" xlink:href="#DejaVuSans-53"/>
       <use x="127.246094" xlink:href="#DejaVuSans-46"/>
       <use x="159.033203" xlink:href="#DejaVuSans-48"/>
      </g>
     </g>
    </g>
    <g id="ytick_8">
     <g id="line2d_25">
      <path clip-path="url(#p202419c8e0)" d="M 50.52 98.050211 
L 1243.03 98.050211 
" style="fill:none;stroke:#cccccc;stroke-linecap:round;stroke-width:0.8;"/>
     </g>
     <g id="line2d_26"/>
     <g id="text_14">
      <!-- 17.5 -->
      <g style="fill:#262626;" transform="translate(24.754375 101.84943)scale(0.1 -0.1)">
       <use xlink:href="#DejaVuSans-49"/>
       <use x="63.623047" xlink:href="#DejaVuSans-55"/>
       <use x="127.246094" xlink:href="#DejaVuSans-46"/>
       <use x="159.033203" xlink:href="#DejaVuSans-53"/>
      </g>
     </g>
    </g>
    <g id="ytick_9">
     <g id="line2d_27">
      <path clip-path="url(#p202419c8e0)" d="M 50.52 38.581929 
L 1243.03 38.581929 
" style="fill:none;stroke:#cccccc;stroke-linecap:round;stroke-width:0.8;"/>
     </g>
     <g id="line2d_28"/>
     <g id="text_15">
      <!-- 20.0 -->
      <g style="fill:#262626;" transform="translate(24.754375 42.381148)scale(0.1 -0.1)">
       <use xlink:href="#DejaVuSans-50"/>
       <use x="63.623047" xlink:href="#DejaVuSans-48"/>
       <use x="127.246094" xlink:href="#DejaVuSans-46"/>
       <use x="159.033203" xlink:href="#DejaVuSans-48"/>
      </g>
     </g>
    </g>
    <g id="text_16">
     <!-- -log (pvalue) -->
     <defs>
      <path d="M 4.890625 31.390625 
L 31.203125 31.390625 
L 31.203125 23.390625 
L 4.890625 23.390625 
z
" id="DejaVuSans-45"/>
      <path d="M 9.421875 75.984375 
L 18.40625 75.984375 
L 18.40625 0 
L 9.421875 0 
z
" id="DejaVuSans-108"/>
      <path d="M 45.40625 27.984375 
Q 45.40625 37.75 41.375 43.109375 
Q 37.359375 48.484375 30.078125 48.484375 
Q 22.859375 48.484375 18.828125 43.109375 
Q 14.796875 37.75 14.796875 27.984375 
Q 14.796875 18.265625 18.828125 12.890625 
Q 22.859375 7.515625 30.078125 7.515625 
Q 37.359375 7.515625 41.375 12.890625 
Q 45.40625 18.265625 45.40625 27.984375 
z
M 54.390625 6.78125 
Q 54.390625 -7.171875 48.1875 -13.984375 
Q 42 -20.796875 29.203125 -20.796875 
Q 24.46875 -20.796875 20.265625 -20.09375 
Q 16.0625 -19.390625 12.109375 -17.921875 
L 12.109375 -9.1875 
Q 16.0625 -11.328125 19.921875 -12.34375 
Q 23.78125 -13.375 27.78125 -13.375 
Q 36.625 -13.375 41.015625 -8.765625 
Q 45.40625 -4.15625 45.40625 5.171875 
L 45.40625 9.625 
Q 42.625 4.78125 38.28125 2.390625 
Q 33.9375 0 27.875 0 
Q 17.828125 0 11.671875 7.65625 
Q 5.515625 15.328125 5.515625 27.984375 
Q 5.515625 40.671875 11.671875 48.328125 
Q 17.828125 56 27.875 56 
Q 33.9375 56 38.28125 53.609375 
Q 42.625 51.21875 45.40625 46.390625 
L 45.40625 54.6875 
L 54.390625 54.6875 
z
" id="DejaVuSans-103"/>
      <path d="M 31 75.875 
Q 24.46875 64.65625 21.28125 53.65625 
Q 18.109375 42.671875 18.109375 31.390625 
Q 18.109375 20.125 21.3125 9.0625 
Q 24.515625 -2 31 -13.1875 
L 23.1875 -13.1875 
Q 15.875 -1.703125 12.234375 9.375 
Q 8.59375 20.453125 8.59375 31.390625 
Q 8.59375 42.28125 12.203125 53.3125 
Q 15.828125 64.359375 23.1875 75.875 
z
" id="DejaVuSans-40"/>
      <path d="M 2.984375 54.6875 
L 12.5 54.6875 
L 29.59375 8.796875 
L 46.6875 54.6875 
L 56.203125 54.6875 
L 35.6875 0 
L 23.484375 0 
z
" id="DejaVuSans-118"/>
      <path d="M 34.28125 27.484375 
Q 23.390625 27.484375 19.1875 25 
Q 14.984375 22.515625 14.984375 16.5 
Q 14.984375 11.71875 18.140625 8.90625 
Q 21.296875 6.109375 26.703125 6.109375 
Q 34.1875 6.109375 38.703125 11.40625 
Q 43.21875 16.703125 43.21875 25.484375 
L 43.21875 27.484375 
z
M 52.203125 31.203125 
L 52.203125 0 
L 43.21875 0 
L 43.21875 8.296875 
Q 40.140625 3.328125 35.546875 0.953125 
Q 30.953125 -1.421875 24.3125 -1.421875 
Q 15.921875 -1.421875 10.953125 3.296875 
Q 6 8.015625 6 15.921875 
Q 6 25.140625 12.171875 29.828125 
Q 18.359375 34.515625 30.609375 34.515625 
L 43.21875 34.515625 
L 43.21875 35.40625 
Q 43.21875 41.609375 39.140625 45 
Q 35.0625 48.390625 27.6875 48.390625 
Q 23 48.390625 18.546875 47.265625 
Q 14.109375 46.140625 10.015625 43.890625 
L 10.015625 52.203125 
Q 14.9375 54.109375 19.578125 55.046875 
Q 24.21875 56 28.609375 56 
Q 40.484375 56 46.34375 49.84375 
Q 52.203125 43.703125 52.203125 31.203125 
z
" id="DejaVuSans-97"/>
      <path d="M 8.5 21.578125 
L 8.5 54.6875 
L 17.484375 54.6875 
L 17.484375 21.921875 
Q 17.484375 14.15625 20.5 10.265625 
Q 23.53125 6.390625 29.59375 6.390625 
Q 36.859375 6.390625 41.078125 11.03125 
Q 45.3125 15.671875 45.3125 23.6875 
L 45.3125 54.6875 
L 54.296875 54.6875 
L 54.296875 0 
L 45.3125 0 
L 45.3125 8.40625 
Q 42.046875 3.421875 37.71875 1 
Q 33.40625 -1.421875 27.6875 -1.421875 
Q 18.265625 -1.421875 13.375 4.4375 
Q 8.5 10.296875 8.5 21.578125 
z
M 31.109375 56 
z
" id="DejaVuSans-117"/>
      <path d="M 8.015625 75.875 
L 15.828125 75.875 
Q 23.140625 64.359375 26.78125 53.3125 
Q 30.421875 42.28125 30.421875 31.390625 
Q 30.421875 20.453125 26.78125 9.375 
Q 23.140625 -1.703125 15.828125 -13.1875 
L 8.015625 -13.1875 
Q 14.5 -2 17.703125 9.0625 
Q 20.90625 20.125 20.90625 31.390625 
Q 20.90625 42.671875 17.703125 53.65625 
Q 14.5 64.65625 8.015625 75.875 
z
" id="DejaVuSans-41"/>
     </defs>
     <g style="fill:#262626;" transform="translate(18.674687 313.959219)rotate(-90)scale(0.1 -0.1)">
      <use xlink:href="#DejaVuSans-45"/>
      <use x="36.083984" xlink:href="#DejaVuSans-108"/>
      <use x="63.867188" xlink:href="#DejaVuSans-111"/>
      <use x="125.048828" xlink:href="#DejaVuSans-103"/>
      <use x="188.525391" xlink:href="#DejaVuSans-32"/>
      <use x="220.3125" xlink:href="#DejaVuSans-40"/>
      <use x="259.326172" xlink:href="#DejaVuSans-112"/>
      <use x="322.802734" xlink:href="#DejaVuSans-118"/>
      <use x="381.982422" xlink:href="#DejaVuSans-97"/>
      <use x="443.261719" xlink:href="#DejaVuSans-108"/>
      <use x="471.044922" xlink:href="#DejaVuSans-117"/>
      <use x="534.423828" xlink:href="#DejaVuSans-101"/>
      <use x="595.947266" xlink:href="#DejaVuSans-41"/>
     </g>
    </g>
   </g>
   <g id="line2d_29">
    <path clip-path="url(#p202419c8e0)" d="M 104.725 514.328182 
L 301.613117 514.328182 
L 304.043834 506.27774 
L 306.474552 511.62973 
L 308.905269 502.047475 
L 311.335987 496.747177 
L 313.766704 491.890837 
L 316.197422 495.677302 
L 318.628139 507.36155 
L 321.058857 499.607527 
L 323.489574 502.788174 
L 325.920291 513.941866 
L 328.351009 507.016037 
L 330.781726 508.638053 
L 333.212444 499.607527 
L 335.643161 493.538632 
L 338.073879 502.361573 
L 340.504596 514.170219 
L 342.935314 498.075973 
L 345.366031 514.170219 
L 347.796749 469.752132 
L 350.227466 514.093464 
L 352.658184 508.860945 
L 355.088901 509.216962 
L 357.519619 511.250504 
L 362.381054 488.285774 
L 364.811771 512.14601 
L 367.242489 495.718684 
L 369.673206 250.057591 
L 372.103924 50.091818 
L 374.534641 505.592054 
L 376.965359 508.970717 
L 379.396076 501.784275 
L 381.826794 513.941866 
L 384.257511 509.150988 
L 386.688229 508.088271 
L 389.118946 480.752968 
L 391.549664 491.59331 
L 393.980381 505.592054 
L 396.411099 498.075973 
L 398.841816 510.079809 
L 401.272534 383.880245 
L 403.703251 479.405577 
L 406.133969 511.250504 
L 408.564686 498.075973 
L 410.995404 505.592054 
L 413.426121 500.025385 
L 415.856839 514.103738 
L 418.287556 512.577115 
L 420.718274 501.572047 
L 423.148991 507.143627 
L 425.579709 511.017516 
L 428.010426 401.153755 
L 430.441143 501.206483 
L 432.871861 498.075973 
L 435.302578 499.607527 
L 437.733296 513.941866 
L 440.164013 509.872869 
L 442.594731 512.197863 
L 445.025448 502.46738 
L 447.456166 501.533127 
L 449.886883 458.840419 
L 452.317601 489.522055 
L 454.748318 505.592054 
L 457.179036 513.941866 
L 459.609753 508.508989 
L 462.040471 509.889363 
L 464.471188 491.596921 
L 466.901906 514.170219 
L 469.332623 499.685613 
L 471.763341 489.163011 
L 474.194058 493.350463 
L 476.624776 468.663434 
L 479.055493 499.624407 
L 481.486211 512.706402 
L 483.916928 509.665311 
L 486.347646 501.206483 
L 488.778363 505.609134 
L 491.209081 500.49662 
L 493.639798 488.238867 
L 496.070516 498.075973 
L 498.501233 512.706402 
L 500.931951 491.863313 
L 503.362668 499.607527 
L 505.793386 480.256471 
L 508.224103 491.745373 
L 510.654821 509.782809 
L 513.085538 496.587924 
L 515.516256 484.46828 
L 517.946973 513.237664 
L 520.377691 445.846117 
L 522.808408 383.880245 
L 525.239126 468.820348 
L 527.669843 454.358272 
L 530.100561 509.216962 
L 532.531278 491.419809 
L 534.961996 509.751462 
L 537.392713 504.513254 
L 539.82343 507.286938 
L 542.254148 499.294123 
L 544.684865 509.216962 
L 547.115583 506.643176 
L 549.5463 429.650001 
L 551.977018 512.577115 
L 554.407735 502.047475 
L 556.838453 509.215219 
L 559.26917 491.596921 
L 561.699888 508.700172 
L 564.130605 498.075973 
L 566.561323 512.979472 
L 568.99204 507.143627 
L 571.422758 514.199724 
L 573.853475 498.075973 
L 576.284193 501.572047 
L 578.71491 513.3114 
L 581.145628 514.286423 
L 583.576345 509.216962 
L 586.007063 499.607527 
L 588.43778 468.820348 
L 590.868498 491.596921 
L 593.299215 508.865348 
L 595.729933 511.842085 
L 598.16065 513.305876 
L 600.591368 499.607527 
L 603.022085 511.250504 
L 605.452803 474.231856 
L 607.88352 458.896874 
L 610.314238 512.620312 
L 612.744955 493.771612 
L 615.175673 511.250504 
L 617.60639 510.277738 
L 620.037108 501.572047 
L 622.467825 512.577115 
L 624.898543 512.4681 
L 627.32926 509.150988 
L 629.759978 508.521298 
L 632.190695 514.170219 
L 634.621413 493.525553 
L 637.05213 423.078884 
L 641.913565 512.059437 
L 644.344283 423.078884 
L 646.775 499.607527 
L 649.205717 506.471716 
L 651.636435 511.977654 
L 654.067152 513.700663 
L 656.49787 511.250504 
L 658.928587 488.638476 
L 661.359305 447.690781 
L 663.790022 513.99682 
L 668.651457 469.674791 
L 671.082175 493.636593 
L 673.512892 514.170219 
L 675.94361 507.286938 
L 678.374327 491.609271 
L 680.805045 511.62973 
L 683.235762 514.170219 
L 685.66648 498.075973 
L 688.097197 487.682056 
L 690.527915 505.592054 
L 692.958632 511.341826 
L 695.38935 479.405577 
L 697.820067 512.067981 
L 700.250785 503.695004 
L 702.681502 468.820348 
L 705.11222 510.000271 
L 707.542937 514.170219 
L 709.973655 506.728983 
L 712.404372 511.250504 
L 714.83509 381.649696 
L 717.265807 499.607527 
L 719.696525 498.075973 
L 722.127242 457.768167 
L 724.55796 493.525553 
L 726.988677 512.05915 
L 729.419395 503.212535 
L 731.850112 505.592054 
L 734.28083 514.170219 
L 736.711547 511.250504 
L 739.142265 499.147706 
L 741.572982 511.250504 
L 744.0037 499.147706 
L 746.434417 468.820348 
L 748.865135 501.206483 
L 751.295852 491.596921 
L 753.72657 491.609271 
L 756.157287 442.275297 
L 758.588004 398.441022 
L 761.018722 510.407058 
L 763.449439 506.805153 
L 765.880157 512.504065 
L 768.310874 465.537927 
L 770.741592 506.41089 
L 773.172309 498.462829 
L 775.603027 513.237664 
L 778.033744 499.294123 
L 780.464462 500.647327 
L 782.895179 507.481484 
L 785.325897 472.186223 
L 787.756614 514.170219 
L 790.187332 499.607527 
L 792.618049 504.284435 
L 795.048767 491.609271 
L 797.479484 474.400477 
L 799.910202 490.061597 
L 802.340919 491.863313 
L 804.771637 514.170219 
L 807.202354 510.74978 
L 809.633072 504.284435 
L 812.063789 513.941866 
L 814.494507 507.360552 
L 816.925224 474.231856 
L 819.355942 513.279946 
L 821.786659 511.250504 
L 824.217377 499.147706 
L 826.648094 495.214771 
L 829.078812 383.880245 
L 831.509529 514.170219 
L 833.940247 514.300124 
L 836.370964 383.880245 
L 838.801682 508.521298 
L 841.232399 513.713333 
L 843.663117 499.607527 
L 846.093834 499.893721 
L 848.524552 406.524921 
L 850.955269 507.913962 
L 853.385987 507.286938 
L 855.816704 431.267874 
L 858.247422 505.427445 
L 860.678139 514.279232 
L 863.108857 503.450791 
L 865.539574 499.607527 
L 867.970291 454.358272 
L 870.401009 498.075973 
L 872.831726 475.318373 
L 875.262444 499.147706 
L 877.693161 509.173432 
L 880.123879 510.079809 
L 882.554596 514.210311 
L 884.985314 511.842085 
L 887.416031 506.805153 
L 889.846749 514.170219 
L 892.277466 499.365353 
L 894.708184 511.250504 
L 897.138901 509.872869 
L 899.569619 499.607527 
L 902.000336 507.143627 
L 904.431054 511.250504 
L 906.861771 507.550885 
L 909.292489 513.941866 
L 911.723206 469.674791 
L 914.153924 478.476184 
L 916.584641 491.745373 
L 919.015359 511.62973 
L 921.446076 512.890389 
L 923.876794 499.607527 
L 926.307511 435.587026 
L 928.738229 495.677302 
L 931.168946 504.226399 
L 933.599664 512.05915 
L 936.030381 513.705133 
L 938.461099 503.617363 
L 940.891816 509.912508 
L 943.322534 509.751462 
L 945.753251 501.956006 
L 948.183969 507.286938 
L 950.614686 499.832391 
L 953.045404 506.223829 
L 955.476121 504.179761 
L 957.906839 513.237664 
L 960.337556 474.231856 
L 962.768274 497.441074 
L 965.198991 505.592054 
L 967.629709 509.216962 
L 970.060426 488.124402 
L 972.491143 512.300714 
L 974.921861 504.876731 
L 977.352578 509.872869 
L 979.783296 512.05915 
L 982.214013 511.250504 
L 984.644731 510.646957 
L 987.075448 502.454385 
L 989.506166 476.915522 
L 991.936883 512.96437 
L 994.367601 504.93219 
L 996.798318 514.170219 
L 999.229036 514.218516 
L 1001.659753 509.216962 
L 1004.090471 511.250504 
L 1006.521188 491.596921 
L 1008.951906 510.407058 
L 1011.382623 512.300714 
L 1013.813341 499.607527 
L 1016.244058 490.703233 
L 1018.674776 495.677302 
L 1021.105493 503.668097 
L 1023.536211 508.508989 
L 1025.966928 500.025529 
L 1028.397646 499.607527 
L 1030.828363 499.685613 
L 1033.259081 510.171495 
L 1035.689798 509.665311 
L 1038.120516 514.170219 
L 1040.551233 482.199769 
L 1042.981951 496.382604 
L 1045.412668 499.607527 
L 1047.843386 506.652823 
L 1050.274103 499.607527 
L 1052.704821 506.223829 
L 1055.135538 508.17914 
L 1057.566256 514.328182 
L 1188.825 514.328182 
L 1188.825 514.328182 
" style="fill:none;stroke:#66c2a5;stroke-linecap:round;stroke-width:1.5;"/>
   </g>
   <g id="line2d_30">
    <path clip-path="url(#p202419c8e0)" d="M 104.725 514.328182 
L 301.613117 514.328182 
L 304.043834 507.856763 
L 306.474552 502.228092 
L 308.905269 495.703076 
L 311.335987 492.243778 
L 313.766704 491.465025 
L 316.197422 490.558749 
L 318.628139 492.243778 
L 321.058857 498.713281 
L 323.489574 502.228092 
L 325.920291 502.576947 
L 328.351009 502.695802 
L 330.781726 499.818175 
L 333.212444 496.636117 
L 335.643161 498.713281 
L 338.073879 495.620526 
L 340.504596 499.655113 
L 342.935314 494.038127 
L 345.366031 497.423765 
L 347.796749 495.703076 
L 350.227466 498.969182 
L 352.658184 498.195604 
L 355.088901 505.632102 
L 357.519619 497.953188 
L 359.950336 498.907878 
L 362.381054 494.996099 
L 364.811771 433.762601 
L 367.242489 296.11531 
L 374.534641 296.11531 
L 376.965359 392.754099 
L 379.396076 504.733109 
L 381.826794 505.378665 
L 384.257511 497.848095 
L 386.688229 494.409509 
L 389.118946 492.19571 
L 391.549664 488.688527 
L 393.980381 489.164143 
L 396.411099 469.037637 
L 398.841816 466.333052 
L 401.272534 467.700915 
L 403.703251 467.700915 
L 406.133969 466.444204 
L 408.564686 492.223985 
L 410.995404 501.723512 
L 413.426121 501.987263 
L 415.856839 503.368142 
L 418.287556 503.800391 
L 420.718274 506.857563 
L 423.148991 482.806365 
L 425.579709 478.91808 
L 428.010426 477.633226 
L 430.441143 475.336391 
L 432.871861 476.28857 
L 435.302578 499.818175 
L 437.733296 503.034269 
L 440.164013 504.55501 
L 442.594731 505.074906 
L 445.025448 491.02721 
L 447.456166 485.348773 
L 449.886883 484.227055 
L 452.317601 486.56647 
L 454.748318 488.183005 
L 457.179036 500.928147 
L 459.609753 501.723512 
L 462.040471 504.223096 
L 464.471188 500.171827 
L 466.901906 494.504868 
L 469.332623 489.446011 
L 471.763341 484.827857 
L 474.194058 481.734 
L 476.624776 484.480396 
L 479.055493 489.446011 
L 481.486211 492.223985 
L 483.916928 501.931776 
L 486.347646 502.137706 
L 488.778363 494.806985 
L 491.209081 491.498224 
L 493.639798 494.622944 
L 496.070516 490.832987 
L 498.501233 490.458497 
L 500.931951 488.815326 
L 503.362668 487.513117 
L 505.793386 486.56647 
L 508.224103 487.77571 
L 510.654821 484.227055 
L 513.085538 492.223985 
L 515.516256 483.315145 
L 517.946973 447.652363 
L 520.377691 441.376906 
L 522.808408 431.89953 
L 525.239126 431.37962 
L 527.669843 444.030506 
L 530.100561 478.060447 
L 532.531278 486.56647 
L 534.961996 499.1809 
L 537.392713 496.388583 
L 539.82343 501.923827 
L 542.254148 500.925531 
L 544.684865 484.480396 
L 547.115583 485.449165 
L 549.5463 486.56647 
L 551.977018 486.56647 
L 554.407735 483.315145 
L 556.838453 500.125605 
L 559.26917 495.72366 
L 561.699888 498.713281 
L 564.130605 498.209758 
L 566.561323 505.041615 
L 568.99204 501.871424 
L 571.422758 503.101261 
L 573.853475 503.124193 
L 576.284193 505.375249 
L 578.71491 503.800391 
L 581.145628 504.528158 
L 583.576345 495.989686 
L 586.007063 489.336446 
L 588.43778 488.061264 
L 590.868498 488.688527 
L 593.299215 492.243778 
L 595.729933 500.206784 
L 598.16065 506.224141 
L 600.591368 497.193351 
L 603.022085 484.480396 
L 605.452803 484.480396 
L 607.88352 483.315145 
L 610.314238 483.315145 
L 612.744955 491.465025 
L 615.175673 501.987263 
L 617.60639 501.987263 
L 620.037108 507.633997 
L 622.467825 506.825517 
L 624.898543 506.205157 
L 627.32926 510.252807 
L 629.759978 504.107974 
L 632.190695 484.227055 
L 634.621413 473.497629 
L 637.05213 474.051263 
L 639.482848 447.652363 
L 641.913565 447.652363 
L 644.344283 473.970407 
L 646.775 485.048177 
L 649.205717 485.348773 
L 651.636435 505.495258 
L 654.067152 502.228092 
L 656.49787 488.183005 
L 658.928587 488.688527 
L 661.359305 483.315145 
L 663.790022 472.184686 
L 666.22074 473.970407 
L 668.651457 489.164143 
L 671.082175 487.77571 
L 673.512892 487.954553 
L 675.94361 498.593899 
L 678.374327 504.706251 
L 680.805045 499.655113 
L 683.235762 493.759737 
L 685.66648 497.914869 
L 688.097197 497.914869 
L 690.527915 488.565676 
L 692.958632 492.243778 
L 695.38935 497.423765 
L 697.820067 488.183005 
L 700.250785 487.954553 
L 702.681502 497.193351 
L 705.11222 495.566649 
L 707.542937 497.678415 
L 709.973655 479.78055 
L 712.404372 476.289705 
L 714.83509 471.574674 
L 717.265807 454.974157 
L 719.696525 447.652363 
L 722.127242 484.480396 
L 724.55796 485.348773 
L 726.988677 487.484394 
L 729.419395 501.707174 
L 731.850112 506.825517 
L 734.28083 502.823201 
L 736.711547 505.074906 
L 739.142265 503.120529 
L 741.572982 491.262988 
L 744.0037 488.534406 
L 746.434417 486.56647 
L 748.865135 482.042381 
L 751.295852 467.509379 
L 753.72657 447.652363 
L 756.157287 450.32327 
L 758.588004 457.218465 
L 761.018722 466.333052 
L 763.449439 471.574674 
L 765.880157 494.806985 
L 768.310874 491.436274 
L 770.741592 492.947736 
L 773.172309 489.113848 
L 775.603027 498.269921 
L 778.033744 498.673171 
L 780.464462 492.238402 
L 782.895179 492.243778 
L 785.325897 492.54748 
L 787.756614 493.701033 
L 790.187332 489.113848 
L 792.618049 489.446011 
L 795.048767 484.200646 
L 797.479484 481.964645 
L 799.910202 484.227055 
L 802.340919 488.688527 
L 804.771637 496.388583 
L 807.202354 503.411675 
L 809.633072 508.178785 
L 812.063789 497.193351 
L 814.494507 497.914869 
L 816.925224 499.860378 
L 819.355942 495.566649 
L 821.786659 492.066618 
L 824.217377 474.051263 
L 826.648094 474.051263 
L 829.078812 475.336391 
L 831.509529 445.191404 
L 833.940247 447.652363 
L 836.370964 484.227055 
L 841.232399 475.336391 
L 843.663117 480.308263 
L 846.093834 480.238103 
L 848.524552 478.060447 
L 850.955269 459.585221 
L 853.385987 461.48311 
L 855.816704 487.954553 
L 858.247422 486.664697 
L 860.678139 485.048177 
L 863.108857 488.995763 
L 865.539574 487.183797 
L 867.970291 477.521726 
L 870.401009 475.788818 
L 872.831726 478.647762 
L 875.262444 491.506853 
L 877.693161 496.388583 
L 880.123879 506.106817 
L 882.554596 508.72845 
L 884.985314 510.478088 
L 887.416031 506.825517 
L 889.846749 505.789273 
L 892.277466 505.154761 
L 897.138901 501.179178 
L 899.569619 504.733109 
L 902.000336 503.604047 
L 904.431054 504.816187 
L 909.292489 489.336446 
L 911.723206 484.74169 
L 914.153924 485.497361 
L 916.584641 485.348773 
L 919.015359 492.241665 
L 921.446076 484.227055 
L 923.876794 484.827857 
L 926.307511 483.315145 
L 928.738229 483.315145 
L 931.168946 486.3876 
L 933.599664 501.733045 
L 936.030381 505.93504 
L 938.461099 507.678156 
L 940.891816 504.733109 
L 943.322534 502.823201 
L 945.753251 501.931776 
L 948.183969 500.768463 
L 950.614686 498.969182 
L 953.045404 502.228092 
L 955.476121 493.514986 
L 957.906839 492.243778 
L 960.337556 492.243778 
L 962.768274 493.701033 
L 965.198991 486.664697 
L 967.629709 496.515025 
L 970.060426 498.713281 
L 972.491143 500.09722 
L 974.921861 500.956999 
L 977.352578 508.065855 
L 979.783296 507.528862 
L 982.214013 506.825517 
L 984.644731 497.914869 
L 987.075448 498.195604 
L 989.506166 496.388583 
L 991.936883 497.423765 
L 994.367601 500.869879 
L 996.798318 509.971794 
L 999.229036 509.414812 
L 1001.659753 505.041615 
L 1004.090471 503.878107 
L 1006.521188 503.238957 
L 1008.951906 500.304527 
L 1011.382623 494.091157 
L 1013.813341 495.461404 
L 1016.244058 493.266673 
L 1018.674776 492.238402 
L 1021.105493 492.278299 
L 1023.536211 495.566649 
L 1028.397646 498.713281 
L 1030.828363 498.969182 
L 1033.259081 503.124193 
L 1035.689798 498.423256 
L 1038.120516 497.193351 
L 1040.551233 494.091157 
L 1042.981951 493.185151 
L 1045.412668 489.113848 
L 1047.843386 495.685936 
L 1050.274103 498.98995 
L 1052.704821 503.411675 
L 1055.135538 505.863031 
L 1057.566256 514.328182 
L 1188.825 514.328182 
L 1188.825 514.328182 
" style="fill:none;stroke:#fc8d62;stroke-linecap:round;stroke-width:1.5;"/>
   </g>
   <g id="line2d_31"/>
   <g id="line2d_32"/>
   <g id="line2d_33">
    <path clip-path="url(#p202419c8e0)" d="M 50.52 466.753557 
L 1243.03 466.753557 
" style="fill:none;stroke:#808080;stroke-dasharray:1.5,2.475;stroke-dashoffset:0;stroke-width:1.5;"/>
   </g>
   <g id="patch_3">
    <path d="M 50.52 537.54 
L 50.52 26.88 
" style="fill:none;stroke:#cccccc;stroke-linecap:square;stroke-linejoin:miter;"/>
   </g>
   <g id="patch_4">
    <path d="M 1243.03 537.54 
L 1243.03 26.88 
" style="fill:none;stroke:#cccccc;stroke-linecap:square;stroke-linejoin:miter;"/>
   </g>
   <g id="patch_5">
    <path d="M 50.52 537.54 
L 1243.03 537.54 
" style="fill:none;stroke:#cccccc;stroke-linecap:square;stroke-linejoin:miter;"/>
   </g>
   <g id="patch_6">
    <path d="M 50.52 26.88 
L 1243.03 26.88 
" style="fill:none;stroke:#cccccc;stroke-linecap:square;stroke-linejoin:miter;"/>
   </g>
   <g id="text_17">
    <!-- ENST00000636484 -->
    <defs>
     <path d="M 9.8125 72.90625 
L 55.90625 72.90625 
L 55.90625 64.59375 
L 19.671875 64.59375 
L 19.671875 43.015625 
L 54.390625 43.015625 
L 54.390625 34.71875 
L 19.671875 34.71875 
L 19.671875 8.296875 
L 56.78125 8.296875 
L 56.78125 0 
L 9.8125 0 
z
" id="DejaVuSans-69"/>
     <path d="M 9.8125 72.90625 
L 23.09375 72.90625 
L 55.421875 11.921875 
L 55.421875 72.90625 
L 64.984375 72.90625 
L 64.984375 0 
L 51.703125 0 
L 19.390625 60.984375 
L 19.390625 0 
L 9.8125 0 
z
" id="DejaVuSans-78"/>
     <path d="M 53.515625 70.515625 
L 53.515625 60.890625 
Q 47.90625 63.578125 42.921875 64.890625 
Q 37.9375 66.21875 33.296875 66.21875 
Q 25.25 66.21875 20.875 63.09375 
Q 16.5 59.96875 16.5 54.203125 
Q 16.5 49.359375 19.40625 46.890625 
Q 22.3125 44.4375 30.421875 42.921875 
L 36.375 41.703125 
Q 47.40625 39.59375 52.65625 34.296875 
Q 57.90625 29 57.90625 20.125 
Q 57.90625 9.515625 50.796875 4.046875 
Q 43.703125 -1.421875 29.984375 -1.421875 
Q 24.8125 -1.421875 18.96875 -0.25 
Q 13.140625 0.921875 6.890625 3.21875 
L 6.890625 13.375 
Q 12.890625 10.015625 18.65625 8.296875 
Q 24.421875 6.59375 29.984375 6.59375 
Q 38.421875 6.59375 43.015625 9.90625 
Q 47.609375 13.234375 47.609375 19.390625 
Q 47.609375 24.75 44.3125 27.78125 
Q 41.015625 30.8125 33.5 32.328125 
L 27.484375 33.5 
Q 16.453125 35.6875 11.515625 40.375 
Q 6.59375 45.0625 6.59375 53.421875 
Q 6.59375 63.09375 13.40625 68.65625 
Q 20.21875 74.21875 32.171875 74.21875 
Q 37.3125 74.21875 42.625 73.28125 
Q 47.953125 72.359375 53.515625 70.515625 
z
" id="DejaVuSans-83"/>
     <path d="M -0.296875 72.90625 
L 61.375 72.90625 
L 61.375 64.59375 
L 35.5 64.59375 
L 35.5 0 
L 25.59375 0 
L 25.59375 64.59375 
L -0.296875 64.59375 
z
" id="DejaVuSans-84"/>
     <path d="M 33.015625 40.375 
Q 26.375 40.375 22.484375 35.828125 
Q 18.609375 31.296875 18.609375 23.390625 
Q 18.609375 15.53125 22.484375 10.953125 
Q 26.375 6.390625 33.015625 6.390625 
Q 39.65625 6.390625 43.53125 10.953125 
Q 47.40625 15.53125 47.40625 23.390625 
Q 47.40625 31.296875 43.53125 35.828125 
Q 39.65625 40.375 33.015625 40.375 
z
M 52.59375 71.296875 
L 52.59375 62.3125 
Q 48.875 64.0625 45.09375 64.984375 
Q 41.3125 65.921875 37.59375 65.921875 
Q 27.828125 65.921875 22.671875 59.328125 
Q 17.53125 52.734375 16.796875 39.40625 
Q 19.671875 43.65625 24.015625 45.921875 
Q 28.375 48.1875 33.59375 48.1875 
Q 44.578125 48.1875 50.953125 41.515625 
Q 57.328125 34.859375 57.328125 23.390625 
Q 57.328125 12.15625 50.6875 5.359375 
Q 44.046875 -1.421875 33.015625 -1.421875 
Q 20.359375 -1.421875 13.671875 8.265625 
Q 6.984375 17.96875 6.984375 36.375 
Q 6.984375 53.65625 15.1875 63.9375 
Q 23.390625 74.21875 37.203125 74.21875 
Q 40.921875 74.21875 44.703125 73.484375 
Q 48.484375 72.75 52.59375 71.296875 
z
" id="DejaVuSans-54"/>
     <path d="M 31.78125 34.625 
Q 24.75 34.625 20.71875 30.859375 
Q 16.703125 27.09375 16.703125 20.515625 
Q 16.703125 13.921875 20.71875 10.15625 
Q 24.75 6.390625 31.78125 6.390625 
Q 38.8125 6.390625 42.859375 10.171875 
Q 46.921875 13.96875 46.921875 20.515625 
Q 46.921875 27.09375 42.890625 30.859375 
Q 38.875 34.625 31.78125 34.625 
z
M 21.921875 38.8125 
Q 15.578125 40.375 12.03125 44.71875 
Q 8.5 49.078125 8.5 55.328125 
Q 8.5 64.0625 14.71875 69.140625 
Q 20.953125 74.21875 31.78125 74.21875 
Q 42.671875 74.21875 48.875 69.140625 
Q 55.078125 64.0625 55.078125 55.328125 
Q 55.078125 49.078125 51.53125 44.71875 
Q 48 40.375 41.703125 38.8125 
Q 48.828125 37.15625 52.796875 32.3125 
Q 56.78125 27.484375 56.78125 20.515625 
Q 56.78125 9.90625 50.3125 4.234375 
Q 43.84375 -1.421875 31.78125 -1.421875 
Q 19.734375 -1.421875 13.25 4.234375 
Q 6.78125 9.90625 6.78125 20.515625 
Q 6.78125 27.484375 10.78125 32.3125 
Q 14.796875 37.15625 21.921875 38.8125 
z
M 18.3125 54.390625 
Q 18.3125 48.734375 21.84375 45.5625 
Q 25.390625 42.390625 31.78125 42.390625 
Q 38.140625 42.390625 41.71875 45.5625 
Q 45.3125 48.734375 45.3125 54.390625 
Q 45.3125 60.0625 41.71875 63.234375 
Q 38.140625 66.40625 31.78125 66.40625 
Q 25.390625 66.40625 21.84375 63.234375 
Q 18.3125 60.0625 18.3125 54.390625 
z
" id="DejaVuSans-56"/>
    </defs>
    <g style="fill:#262626;" transform="translate(589.02875 20.88)scale(0.12 -0.12)">
     <use xlink:href="#DejaVuSans-69"/>
     <use x="63.183594" xlink:href="#DejaVuSans-78"/>
     <use x="137.988281" xlink:href="#DejaVuSans-83"/>
     <use x="201.464844" xlink:href="#DejaVuSans-84"/>
     <use x="262.548828" xlink:href="#DejaVuSans-48"/>
     <use x="326.171875" xlink:href="#DejaVuSans-48"/>
     <use x="389.794922" xlink:href="#DejaVuSans-48"/>
     <use x="453.417969" xlink:href="#DejaVuSans-48"/>
     <use x="517.041016" xlink:href="#DejaVuSans-48"/>
     <use x="580.664062" xlink:href="#DejaVuSans-54"/>
     <use x="644.287109" xlink:href="#DejaVuSans-51"/>
     <use x="707.910156" xlink:href="#DejaVuSans-54"/>
     <use x="771.533203" xlink:href="#DejaVuSans-52"/>
     <use x="835.15625" xlink:href="#DejaVuSans-56"/>
     <use x="898.779297" xlink:href="#DejaVuSans-52"/>
    </g>
   </g>
   <g id="legend_1">
    <g id="line2d_34">
     <path d="M 1252.03 39.978437 
L 1272.03 39.978437 
" style="fill:none;stroke:#66c2a5;stroke-linecap:round;stroke-width:1.5;"/>
    </g>
    <g id="line2d_35"/>
    <g id="text_18">
     <!-- GMM_logit_pvalue -->
     <defs>
      <path d="M 59.515625 10.40625 
L 59.515625 29.984375 
L 43.40625 29.984375 
L 43.40625 38.09375 
L 69.28125 38.09375 
L 69.28125 6.78125 
Q 63.578125 2.734375 56.6875 0.65625 
Q 49.8125 -1.421875 42 -1.421875 
Q 24.90625 -1.421875 15.25 8.5625 
Q 5.609375 18.5625 5.609375 36.375 
Q 5.609375 54.25 15.25 64.234375 
Q 24.90625 74.21875 42 74.21875 
Q 49.125 74.21875 55.546875 72.453125 
Q 61.96875 70.703125 67.390625 67.28125 
L 67.390625 56.78125 
Q 61.921875 61.421875 55.765625 63.765625 
Q 49.609375 66.109375 42.828125 66.109375 
Q 29.4375 66.109375 22.71875 58.640625 
Q 16.015625 51.171875 16.015625 36.375 
Q 16.015625 21.625 22.71875 14.15625 
Q 29.4375 6.6875 42.828125 6.6875 
Q 48.046875 6.6875 52.140625 7.59375 
Q 56.25 8.5 59.515625 10.40625 
z
" id="DejaVuSans-71"/>
      <path d="M 9.8125 72.90625 
L 24.515625 72.90625 
L 43.109375 23.296875 
L 61.8125 72.90625 
L 76.515625 72.90625 
L 76.515625 0 
L 66.890625 0 
L 66.890625 64.015625 
L 48.09375 14.015625 
L 38.1875 14.015625 
L 19.390625 64.015625 
L 19.390625 0 
L 9.8125 0 
z
" id="DejaVuSans-77"/>
      <path d="M 50.984375 -16.609375 
L 50.984375 -23.578125 
L -0.984375 -23.578125 
L -0.984375 -16.609375 
z
" id="DejaVuSans-95"/>
     </defs>
     <g style="fill:#262626;" transform="translate(1280.03 43.478437)scale(0.1 -0.1)">
      <use xlink:href="#DejaVuSans-71"/>
      <use x="77.490234" xlink:href="#DejaVuSans-77"/>
      <use x="163.769531" xlink:href="#DejaVuSans-77"/>
      <use x="250.048828" xlink:href="#DejaVuSans-95"/>
      <use x="300.048828" xlink:href="#DejaVuSans-108"/>
      <use x="327.832031" xlink:href="#DejaVuSans-111"/>
      <use x="389.013672" xlink:href="#DejaVuSans-103"/>
      <use x="452.490234" xlink:href="#DejaVuSans-105"/>
      <use x="480.273438" xlink:href="#DejaVuSans-116"/>
      <use x="519.482422" xlink:href="#DejaVuSans-95"/>
      <use x="569.482422" xlink:href="#DejaVuSans-112"/>
      <use x="632.958984" xlink:href="#DejaVuSans-118"/>
      <use x="692.138672" xlink:href="#DejaVuSans-97"/>
      <use x="753.417969" xlink:href="#DejaVuSans-108"/>
      <use x="781.201172" xlink:href="#DejaVuSans-117"/>
      <use x="844.580078" xlink:href="#DejaVuSans-101"/>
     </g>
    </g>
    <g id="line2d_36">
     <path d="M 1252.03 54.934687 
L 1272.03 54.934687 
" style="fill:none;stroke:#fc8d62;stroke-linecap:round;stroke-width:1.5;"/>
    </g>
    <g id="line2d_37"/>
    <g id="text_19">
     <!-- GMM_logit_pvalue_context_2 -->
     <defs>
      <path d="M 54.890625 54.6875 
L 35.109375 28.078125 
L 55.90625 0 
L 45.3125 0 
L 29.390625 21.484375 
L 13.484375 0 
L 2.875 0 
L 24.125 28.609375 
L 4.6875 54.6875 
L 15.28125 54.6875 
L 29.78125 35.203125 
L 44.28125 54.6875 
z
" id="DejaVuSans-120"/>
     </defs>
     <g style="fill:#262626;" transform="translate(1280.03 58.434687)scale(0.1 -0.1)">
      <use xlink:href="#DejaVuSans-71"/>
      <use x="77.490234" xlink:href="#DejaVuSans-77"/>
      <use x="163.769531" xlink:href="#DejaVuSans-77"/>
      <use x="250.048828" xlink:href="#DejaVuSans-95"/>
      <use x="300.048828" xlink:href="#DejaVuSans-108"/>
      <use x="327.832031" xlink:href="#DejaVuSans-111"/>
      <use x="389.013672" xlink:href="#DejaVuSans-103"/>
      <use x="452.490234" xlink:href="#DejaVuSans-105"/>
      <use x="480.273438" xlink:href="#DejaVuSans-116"/>
      <use x="519.482422" xlink:href="#DejaVuSans-95"/>
      <use x="569.482422" xlink:href="#DejaVuSans-112"/>
      <use x="632.958984" xlink:href="#DejaVuSans-118"/>
      <use x="692.138672" xlink:href="#DejaVuSans-97"/>
      <use x="753.417969" xlink:href="#DejaVuSans-108"/>
      <use x="781.201172" xlink:href="#DejaVuSans-117"/>
      <use x="844.580078" xlink:href="#DejaVuSans-101"/>
      <use x="906.103516" xlink:href="#DejaVuSans-95"/>
      <use x="956.103516" xlink:href="#DejaVuSans-99"/>
      <use x="1011.083984" xlink:href="#DejaVuSans-111"/>
      <use x="1072.265625" xlink:href="#DejaVuSans-110"/>
      <use x="1135.644531" xlink:href="#DejaVuSans-116"/>
      <use x="1174.853516" xlink:href="#DejaVuSans-101"/>
      <use x="1236.361328" xlink:href="#DejaVuSans-120"/>
      <use x="1295.541016" xlink:href="#DejaVuSans-116"/>
      <use x="1334.75" xlink:href="#DejaVuSans-95"/>
      <use x="1384.75" xlink:href="#DejaVuSans-50"/>
     </g>
    </g>
    <g id="line2d_38">
     <path d="M 1252.03 69.890937 
L 1272.03 69.890937 
" style="fill:none;stroke:#808080;stroke-dasharray:1.5,2.475;stroke-dashoffset:0;stroke-width:1.5;"/>
    </g>
    <g id="line2d_39"/>
    <g id="text_20">
     <!-- pvalue=0.01 -->
     <defs>
      <path d="M 10.59375 45.40625 
L 73.1875 45.40625 
L 73.1875 37.203125 
L 10.59375 37.203125 
z
M 10.59375 25.484375 
L 73.1875 25.484375 
L 73.1875 17.1875 
L 10.59375 17.1875 
z
" id="DejaVuSans-61"/>
     </defs>
     <g style="fill:#262626;" transform="translate(1280.03 73.390937)scale(0.1 -0.1)">
      <use xlink:href="#DejaVuSans-112"/>
      <use x="63.476562" xlink:href="#DejaVuSans-118"/>
      <use x="122.65625" xlink:href="#DejaVuSans-97"/>
      <use x="183.935547" xlink:href="#DejaVuSans-108"/>
      <use x="211.71875" xlink:href="#DejaVuSans-117"/>
      <use x="275.097656" xlink:href="#DejaVuSans-101"/>
      <use x="336.621094" xlink:href="#DejaVuSans-61"/>
      <use x="420.410156" xlink:href="#DejaVuSans-48"/>
      <use x="484.033203" xlink:href="#DejaVuSans-46"/>
      <use x="515.820312" xlink:href="#DejaVuSans-48"/>
      <use x="579.443359" xlink:href="#DejaVuSans-49"/>
     </g>
    </g>
   </g>
  </g>
 </g>
 <defs>
  <clipPath id="p202419c8e0">
   <rect height="510.66" width="1192.51" x="50.52" y="26.88"/>
  </clipPath>
 </defs>
</svg>
