<?xml version="1.0" encoding="utf-8" standalone="no"?>
<!DOCTYPE svg PUBLIC "-//W3C//DTD SVG 1.1//EN"
  "http://www.w3.org/Graphics/SVG/1.1/DTD/svg11.dtd">
<!-- Created with matplotlib (https://matplotlib.org/) -->
<svg height="576pt" version="1.1" viewBox="0 0 1440 576" width="1440pt" xmlns="http://www.w3.org/2000/svg" xmlns:xlink="http://www.w3.org/1999/xlink">
 <defs>
  <style type="text/css">
*{stroke-linecap:butt;stroke-linejoin:round;}
  </style>
 </defs>
 <g id="figure_1">
  <g id="patch_1">
   <path d="M 0 576 
L 1440 576 
L 1440 0 
L 0 0 
z
" style="fill:#ffffff;"/>
  </g>
  <g id="axes_1">
   <g id="patch_2">
    <path d="M 47.37 537.54 
L 1243.03 537.54 
L 1243.03 26.88 
L 47.37 26.88 
z
" style="fill:#ffffff;"/>
   </g>
   <g id="matplotlib.axis_1">
    <g id="xtick_1">
     <g id="line2d_1">
      <path clip-path="url(#p632d2d7eb9)" d="M 101.718182 537.54 
L 101.718182 26.88 
" style="fill:none;stroke:#cccccc;stroke-linecap:round;stroke-width:0.8;"/>
     </g>
     <g id="line2d_2"/>
     <g id="text_1">
      <!-- 0 -->
      <defs>
       <path d="M 31.78125 66.40625 
Q 24.171875 66.40625 20.328125 58.90625 
Q 16.5 51.421875 16.5 36.375 
Q 16.5 21.390625 20.328125 13.890625 
Q 24.171875 6.390625 31.78125 6.390625 
Q 39.453125 6.390625 43.28125 13.890625 
Q 47.125 21.390625 47.125 36.375 
Q 47.125 51.421875 43.28125 58.90625 
Q 39.453125 66.40625 31.78125 66.40625 
z
M 31.78125 74.21875 
Q 44.046875 74.21875 50.515625 64.515625 
Q 56.984375 54.828125 56.984375 36.375 
Q 56.984375 17.96875 50.515625 8.265625 
Q 44.046875 -1.421875 31.78125 -1.421875 
Q 19.53125 -1.421875 13.0625 8.265625 
Q 6.59375 17.96875 6.59375 36.375 
Q 6.59375 54.828125 13.0625 64.515625 
Q 19.53125 74.21875 31.78125 74.21875 
z
" id="DejaVuSans-48"/>
      </defs>
      <g style="fill:#262626;" transform="translate(98.536932 548.638438)scale(0.1 -0.1)">
       <use xlink:href="#DejaVuSans-48"/>
      </g>
     </g>
    </g>
    <g id="xtick_2">
     <g id="line2d_3">
      <path clip-path="url(#p632d2d7eb9)" d="M 345.432002 537.54 
L 345.432002 26.88 
" style="fill:none;stroke:#cccccc;stroke-linecap:round;stroke-width:0.8;"/>
     </g>
     <g id="line2d_4"/>
     <g id="text_2">
      <!-- 100 -->
      <defs>
       <path d="M 12.40625 8.296875 
L 28.515625 8.296875 
L 28.515625 63.921875 
L 10.984375 60.40625 
L 10.984375 69.390625 
L 28.421875 72.90625 
L 38.28125 72.90625 
L 38.28125 8.296875 
L 54.390625 8.296875 
L 54.390625 0 
L 12.40625 0 
z
" id="DejaVuSans-49"/>
      </defs>
      <g style="fill:#262626;" transform="translate(335.888252 548.638438)scale(0.1 -0.1)">
       <use xlink:href="#DejaVuSans-49"/>
       <use x="63.623047" xlink:href="#DejaVuSans-48"/>
       <use x="127.246094" xlink:href="#DejaVuSans-48"/>
      </g>
     </g>
    </g>
    <g id="xtick_3">
     <g id="line2d_5">
      <path clip-path="url(#p632d2d7eb9)" d="M 589.145821 537.54 
L 589.145821 26.88 
" style="fill:none;stroke:#cccccc;stroke-linecap:round;stroke-width:0.8;"/>
     </g>
     <g id="line2d_6"/>
     <g id="text_3">
      <!-- 200 -->
      <defs>
       <path d="M 19.1875 8.296875 
L 53.609375 8.296875 
L 53.609375 0 
L 7.328125 0 
L 7.328125 8.296875 
Q 12.9375 14.109375 22.625 23.890625 
Q 32.328125 33.6875 34.8125 36.53125 
Q 39.546875 41.84375 41.421875 45.53125 
Q 43.3125 49.21875 43.3125 52.78125 
Q 43.3125 58.59375 39.234375 62.25 
Q 35.15625 65.921875 28.609375 65.921875 
Q 23.96875 65.921875 18.8125 64.3125 
Q 13.671875 62.703125 7.8125 59.421875 
L 7.8125 69.390625 
Q 13.765625 71.78125 18.9375 73 
Q 24.125 74.21875 28.421875 74.21875 
Q 39.75 74.21875 46.484375 68.546875 
Q 53.21875 62.890625 53.21875 53.421875 
Q 53.21875 48.921875 51.53125 44.890625 
Q 49.859375 40.875 45.40625 35.40625 
Q 44.1875 33.984375 37.640625 27.21875 
Q 31.109375 20.453125 19.1875 8.296875 
z
" id="DejaVuSans-50"/>
      </defs>
      <g style="fill:#262626;" transform="translate(579.602071 548.638438)scale(0.1 -0.1)">
       <use xlink:href="#DejaVuSans-50"/>
       <use x="63.623047" xlink:href="#DejaVuSans-48"/>
       <use x="127.246094" xlink:href="#DejaVuSans-48"/>
      </g>
     </g>
    </g>
    <g id="xtick_4">
     <g id="line2d_7">
      <path clip-path="url(#p632d2d7eb9)" d="M 832.859641 537.54 
L 832.859641 26.88 
" style="fill:none;stroke:#cccccc;stroke-linecap:round;stroke-width:0.8;"/>
     </g>
     <g id="line2d_8"/>
     <g id="text_4">
      <!-- 300 -->
      <defs>
       <path d="M 40.578125 39.3125 
Q 47.65625 37.796875 51.625 33 
Q 55.609375 28.21875 55.609375 21.1875 
Q 55.609375 10.40625 48.1875 4.484375 
Q 40.765625 -1.421875 27.09375 -1.421875 
Q 22.515625 -1.421875 17.65625 -0.515625 
Q 12.796875 0.390625 7.625 2.203125 
L 7.625 11.71875 
Q 11.71875 9.328125 16.59375 8.109375 
Q 21.484375 6.890625 26.8125 6.890625 
Q 36.078125 6.890625 40.9375 10.546875 
Q 45.796875 14.203125 45.796875 21.1875 
Q 45.796875 27.640625 41.28125 31.265625 
Q 36.765625 34.90625 28.71875 34.90625 
L 20.21875 34.90625 
L 20.21875 43.015625 
L 29.109375 43.015625 
Q 36.375 43.015625 40.234375 45.921875 
Q 44.09375 48.828125 44.09375 54.296875 
Q 44.09375 59.90625 40.109375 62.90625 
Q 36.140625 65.921875 28.71875 65.921875 
Q 24.65625 65.921875 20.015625 65.03125 
Q 15.375 64.15625 9.8125 62.3125 
L 9.8125 71.09375 
Q 15.4375 72.65625 20.34375 73.4375 
Q 25.25 74.21875 29.59375 74.21875 
Q 40.828125 74.21875 47.359375 69.109375 
Q 53.90625 64.015625 53.90625 55.328125 
Q 53.90625 49.265625 50.4375 45.09375 
Q 46.96875 40.921875 40.578125 39.3125 
z
" id="DejaVuSans-51"/>
      </defs>
      <g style="fill:#262626;" transform="translate(823.315891 548.638438)scale(0.1 -0.1)">
       <use xlink:href="#DejaVuSans-51"/>
       <use x="63.623047" xlink:href="#DejaVuSans-48"/>
       <use x="127.246094" xlink:href="#DejaVuSans-48"/>
      </g>
     </g>
    </g>
    <g id="xtick_5">
     <g id="line2d_9">
      <path clip-path="url(#p632d2d7eb9)" d="M 1076.573461 537.54 
L 1076.573461 26.88 
" style="fill:none;stroke:#cccccc;stroke-linecap:round;stroke-width:0.8;"/>
     </g>
     <g id="line2d_10"/>
     <g id="text_5">
      <!-- 400 -->
      <defs>
       <path d="M 37.796875 64.3125 
L 12.890625 25.390625 
L 37.796875 25.390625 
z
M 35.203125 72.90625 
L 47.609375 72.90625 
L 47.609375 25.390625 
L 58.015625 25.390625 
L 58.015625 17.1875 
L 47.609375 17.1875 
L 47.609375 0 
L 37.796875 0 
L 37.796875 17.1875 
L 4.890625 17.1875 
L 4.890625 26.703125 
z
" id="DejaVuSans-52"/>
      </defs>
      <g style="fill:#262626;" transform="translate(1067.029711 548.638438)scale(0.1 -0.1)">
       <use xlink:href="#DejaVuSans-52"/>
       <use x="63.623047" xlink:href="#DejaVuSans-48"/>
       <use x="127.246094" xlink:href="#DejaVuSans-48"/>
      </g>
     </g>
    </g>
    <g id="text_6">
     <!-- Reference position -->
     <defs>
      <path d="M 44.390625 34.1875 
Q 47.5625 33.109375 50.5625 29.59375 
Q 53.5625 26.078125 56.59375 19.921875 
L 66.609375 0 
L 56 0 
L 46.6875 18.703125 
Q 43.0625 26.03125 39.671875 28.421875 
Q 36.28125 30.8125 30.421875 30.8125 
L 19.671875 30.8125 
L 19.671875 0 
L 9.8125 0 
L 9.8125 72.90625 
L 32.078125 72.90625 
Q 44.578125 72.90625 50.734375 67.671875 
Q 56.890625 62.453125 56.890625 51.90625 
Q 56.890625 45.015625 53.6875 40.46875 
Q 50.484375 35.9375 44.390625 34.1875 
z
M 19.671875 64.796875 
L 19.671875 38.921875 
L 32.078125 38.921875 
Q 39.203125 38.921875 42.84375 42.21875 
Q 46.484375 45.515625 46.484375 51.90625 
Q 46.484375 58.296875 42.84375 61.546875 
Q 39.203125 64.796875 32.078125 64.796875 
z
" id="DejaVuSans-82"/>
      <path d="M 56.203125 29.59375 
L 56.203125 25.203125 
L 14.890625 25.203125 
Q 15.484375 15.921875 20.484375 11.0625 
Q 25.484375 6.203125 34.421875 6.203125 
Q 39.59375 6.203125 44.453125 7.46875 
Q 49.3125 8.734375 54.109375 11.28125 
L 54.109375 2.78125 
Q 49.265625 0.734375 44.1875 -0.34375 
Q 39.109375 -1.421875 33.890625 -1.421875 
Q 20.796875 -1.421875 13.15625 6.1875 
Q 5.515625 13.8125 5.515625 26.8125 
Q 5.515625 40.234375 12.765625 48.109375 
Q 20.015625 56 32.328125 56 
Q 43.359375 56 49.78125 48.890625 
Q 56.203125 41.796875 56.203125 29.59375 
z
M 47.21875 32.234375 
Q 47.125 39.59375 43.09375 43.984375 
Q 39.0625 48.390625 32.421875 48.390625 
Q 24.90625 48.390625 20.390625 44.140625 
Q 15.875 39.890625 15.1875 32.171875 
z
" id="DejaVuSans-101"/>
      <path d="M 37.109375 75.984375 
L 37.109375 68.5 
L 28.515625 68.5 
Q 23.6875 68.5 21.796875 66.546875 
Q 19.921875 64.59375 19.921875 59.515625 
L 19.921875 54.6875 
L 34.71875 54.6875 
L 34.71875 47.703125 
L 19.921875 47.703125 
L 19.921875 0 
L 10.890625 0 
L 10.890625 47.703125 
L 2.296875 47.703125 
L 2.296875 54.6875 
L 10.890625 54.6875 
L 10.890625 58.5 
Q 10.890625 67.625 15.140625 71.796875 
Q 19.390625 75.984375 28.609375 75.984375 
z
" id="DejaVuSans-102"/>
      <path d="M 41.109375 46.296875 
Q 39.59375 47.171875 37.8125 47.578125 
Q 36.03125 48 33.890625 48 
Q 26.265625 48 22.1875 43.046875 
Q 18.109375 38.09375 18.109375 28.8125 
L 18.109375 0 
L 9.078125 0 
L 9.078125 54.6875 
L 18.109375 54.6875 
L 18.109375 46.1875 
Q 20.953125 51.171875 25.484375 53.578125 
Q 30.03125 56 36.53125 56 
Q 37.453125 56 38.578125 55.875 
Q 39.703125 55.765625 41.0625 55.515625 
z
" id="DejaVuSans-114"/>
      <path d="M 54.890625 33.015625 
L 54.890625 0 
L 45.90625 0 
L 45.90625 32.71875 
Q 45.90625 40.484375 42.875 44.328125 
Q 39.84375 48.1875 33.796875 48.1875 
Q 26.515625 48.1875 22.3125 43.546875 
Q 18.109375 38.921875 18.109375 30.90625 
L 18.109375 0 
L 9.078125 0 
L 9.078125 54.6875 
L 18.109375 54.6875 
L 18.109375 46.1875 
Q 21.34375 51.125 25.703125 53.5625 
Q 30.078125 56 35.796875 56 
Q 45.21875 56 50.046875 50.171875 
Q 54.890625 44.34375 54.890625 33.015625 
z
" id="DejaVuSans-110"/>
      <path d="M 48.78125 52.59375 
L 48.78125 44.1875 
Q 44.96875 46.296875 41.140625 47.34375 
Q 37.3125 48.390625 33.40625 48.390625 
Q 24.65625 48.390625 19.8125 42.84375 
Q 14.984375 37.3125 14.984375 27.296875 
Q 14.984375 17.28125 19.8125 11.734375 
Q 24.65625 6.203125 33.40625 6.203125 
Q 37.3125 6.203125 41.140625 7.25 
Q 44.96875 8.296875 48.78125 10.40625 
L 48.78125 2.09375 
Q 45.015625 0.34375 40.984375 -0.53125 
Q 36.96875 -1.421875 32.421875 -1.421875 
Q 20.0625 -1.421875 12.78125 6.34375 
Q 5.515625 14.109375 5.515625 27.296875 
Q 5.515625 40.671875 12.859375 48.328125 
Q 20.21875 56 33.015625 56 
Q 37.15625 56 41.109375 55.140625 
Q 45.0625 54.296875 48.78125 52.59375 
z
" id="DejaVuSans-99"/>
      <path id="DejaVuSans-32"/>
      <path d="M 18.109375 8.203125 
L 18.109375 -20.796875 
L 9.078125 -20.796875 
L 9.078125 54.6875 
L 18.109375 54.6875 
L 18.109375 46.390625 
Q 20.953125 51.265625 25.265625 53.625 
Q 29.59375 56 35.59375 56 
Q 45.5625 56 51.78125 48.09375 
Q 58.015625 40.1875 58.015625 27.296875 
Q 58.015625 14.40625 51.78125 6.484375 
Q 45.5625 -1.421875 35.59375 -1.421875 
Q 29.59375 -1.421875 25.265625 0.953125 
Q 20.953125 3.328125 18.109375 8.203125 
z
M 48.6875 27.296875 
Q 48.6875 37.203125 44.609375 42.84375 
Q 40.53125 48.484375 33.40625 48.484375 
Q 26.265625 48.484375 22.1875 42.84375 
Q 18.109375 37.203125 18.109375 27.296875 
Q 18.109375 17.390625 22.1875 11.75 
Q 26.265625 6.109375 33.40625 6.109375 
Q 40.53125 6.109375 44.609375 11.75 
Q 48.6875 17.390625 48.6875 27.296875 
z
" id="DejaVuSans-112"/>
      <path d="M 30.609375 48.390625 
Q 23.390625 48.390625 19.1875 42.75 
Q 14.984375 37.109375 14.984375 27.296875 
Q 14.984375 17.484375 19.15625 11.84375 
Q 23.34375 6.203125 30.609375 6.203125 
Q 37.796875 6.203125 41.984375 11.859375 
Q 46.1875 17.53125 46.1875 27.296875 
Q 46.1875 37.015625 41.984375 42.703125 
Q 37.796875 48.390625 30.609375 48.390625 
z
M 30.609375 56 
Q 42.328125 56 49.015625 48.375 
Q 55.71875 40.765625 55.71875 27.296875 
Q 55.71875 13.875 49.015625 6.21875 
Q 42.328125 -1.421875 30.609375 -1.421875 
Q 18.84375 -1.421875 12.171875 6.21875 
Q 5.515625 13.875 5.515625 27.296875 
Q 5.515625 40.765625 12.171875 48.375 
Q 18.84375 56 30.609375 56 
z
" id="DejaVuSans-111"/>
      <path d="M 44.28125 53.078125 
L 44.28125 44.578125 
Q 40.484375 46.53125 36.375 47.5 
Q 32.28125 48.484375 27.875 48.484375 
Q 21.1875 48.484375 17.84375 46.4375 
Q 14.5 44.390625 14.5 40.28125 
Q 14.5 37.15625 16.890625 35.375 
Q 19.28125 33.59375 26.515625 31.984375 
L 29.59375 31.296875 
Q 39.15625 29.25 43.1875 25.515625 
Q 47.21875 21.78125 47.21875 15.09375 
Q 47.21875 7.46875 41.1875 3.015625 
Q 35.15625 -1.421875 24.609375 -1.421875 
Q 20.21875 -1.421875 15.453125 -0.5625 
Q 10.6875 0.296875 5.421875 2 
L 5.421875 11.28125 
Q 10.40625 8.6875 15.234375 7.390625 
Q 20.0625 6.109375 24.8125 6.109375 
Q 31.15625 6.109375 34.5625 8.28125 
Q 37.984375 10.453125 37.984375 14.40625 
Q 37.984375 18.0625 35.515625 20.015625 
Q 33.0625 21.96875 24.703125 23.78125 
L 21.578125 24.515625 
Q 13.234375 26.265625 9.515625 29.90625 
Q 5.8125 33.546875 5.8125 39.890625 
Q 5.8125 47.609375 11.28125 51.796875 
Q 16.75 56 26.8125 56 
Q 31.78125 56 36.171875 55.265625 
Q 40.578125 54.546875 44.28125 53.078125 
z
" id="DejaVuSans-115"/>
      <path d="M 9.421875 54.6875 
L 18.40625 54.6875 
L 18.40625 0 
L 9.421875 0 
z
M 9.421875 75.984375 
L 18.40625 75.984375 
L 18.40625 64.59375 
L 9.421875 64.59375 
z
" id="DejaVuSans-105"/>
      <path d="M 18.3125 70.21875 
L 18.3125 54.6875 
L 36.8125 54.6875 
L 36.8125 47.703125 
L 18.3125 47.703125 
L 18.3125 18.015625 
Q 18.3125 11.328125 20.140625 9.421875 
Q 21.96875 7.515625 27.59375 7.515625 
L 36.8125 7.515625 
L 36.8125 0 
L 27.59375 0 
Q 17.1875 0 13.234375 3.875 
Q 9.28125 7.765625 9.28125 18.015625 
L 9.28125 47.703125 
L 2.6875 47.703125 
L 2.6875 54.6875 
L 9.28125 54.6875 
L 9.28125 70.21875 
z
" id="DejaVuSans-116"/>
     </defs>
     <g style="fill:#262626;" transform="translate(598.296875 562.316563)scale(0.1 -0.1)">
      <use xlink:href="#DejaVuSans-82"/>
      <use x="69.419922" xlink:href="#DejaVuSans-101"/>
      <use x="130.943359" xlink:href="#DejaVuSans-102"/>
      <use x="166.148438" xlink:href="#DejaVuSans-101"/>
      <use x="227.671875" xlink:href="#DejaVuSans-114"/>
      <use x="268.753906" xlink:href="#DejaVuSans-101"/>
      <use x="330.277344" xlink:href="#DejaVuSans-110"/>
      <use x="393.65625" xlink:href="#DejaVuSans-99"/>
      <use x="448.636719" xlink:href="#DejaVuSans-101"/>
      <use x="510.160156" xlink:href="#DejaVuSans-32"/>
      <use x="541.947266" xlink:href="#DejaVuSans-112"/>
      <use x="605.423828" xlink:href="#DejaVuSans-111"/>
      <use x="666.605469" xlink:href="#DejaVuSans-115"/>
      <use x="718.705078" xlink:href="#DejaVuSans-105"/>
      <use x="746.488281" xlink:href="#DejaVuSans-116"/>
      <use x="785.697266" xlink:href="#DejaVuSans-105"/>
      <use x="813.480469" xlink:href="#DejaVuSans-111"/>
      <use x="874.662109" xlink:href="#DejaVuSans-110"/>
     </g>
    </g>
   </g>
   <g id="matplotlib.axis_2">
    <g id="ytick_1">
     <g id="line2d_11">
      <path clip-path="url(#p632d2d7eb9)" d="M 47.37 514.328182 
L 1243.03 514.328182 
" style="fill:none;stroke:#cccccc;stroke-linecap:round;stroke-width:0.8;"/>
     </g>
     <g id="line2d_12"/>
     <g id="text_7">
      <!-- 0 -->
      <g style="fill:#262626;" transform="translate(37.5075 518.127401)scale(0.1 -0.1)">
       <use xlink:href="#DejaVuSans-48"/>
      </g>
     </g>
    </g>
    <g id="ytick_2">
     <g id="line2d_13">
      <path clip-path="url(#p632d2d7eb9)" d="M 47.37 429.025922 
L 1243.03 429.025922 
" style="fill:none;stroke:#cccccc;stroke-linecap:round;stroke-width:0.8;"/>
     </g>
     <g id="line2d_14"/>
     <g id="text_8">
      <!-- 20 -->
      <g style="fill:#262626;" transform="translate(31.145 432.825141)scale(0.1 -0.1)">
       <use xlink:href="#DejaVuSans-50"/>
       <use x="63.623047" xlink:href="#DejaVuSans-48"/>
      </g>
     </g>
    </g>
    <g id="ytick_3">
     <g id="line2d_15">
      <path clip-path="url(#p632d2d7eb9)" d="M 47.37 343.723663 
L 1243.03 343.723663 
" style="fill:none;stroke:#cccccc;stroke-linecap:round;stroke-width:0.8;"/>
     </g>
     <g id="line2d_16"/>
     <g id="text_9">
      <!-- 40 -->
      <g style="fill:#262626;" transform="translate(31.145 347.522882)scale(0.1 -0.1)">
       <use xlink:href="#DejaVuSans-52"/>
       <use x="63.623047" xlink:href="#DejaVuSans-48"/>
      </g>
     </g>
    </g>
    <g id="ytick_4">
     <g id="line2d_17">
      <path clip-path="url(#p632d2d7eb9)" d="M 47.37 258.421404 
L 1243.03 258.421404 
" style="fill:none;stroke:#cccccc;stroke-linecap:round;stroke-width:0.8;"/>
     </g>
     <g id="line2d_18"/>
     <g id="text_10">
      <!-- 60 -->
      <defs>
       <path d="M 33.015625 40.375 
Q 26.375 40.375 22.484375 35.828125 
Q 18.609375 31.296875 18.609375 23.390625 
Q 18.609375 15.53125 22.484375 10.953125 
Q 26.375 6.390625 33.015625 6.390625 
Q 39.65625 6.390625 43.53125 10.953125 
Q 47.40625 15.53125 47.40625 23.390625 
Q 47.40625 31.296875 43.53125 35.828125 
Q 39.65625 40.375 33.015625 40.375 
z
M 52.59375 71.296875 
L 52.59375 62.3125 
Q 48.875 64.0625 45.09375 64.984375 
Q 41.3125 65.921875 37.59375 65.921875 
Q 27.828125 65.921875 22.671875 59.328125 
Q 17.53125 52.734375 16.796875 39.40625 
Q 19.671875 43.65625 24.015625 45.921875 
Q 28.375 48.1875 33.59375 48.1875 
Q 44.578125 48.1875 50.953125 41.515625 
Q 57.328125 34.859375 57.328125 23.390625 
Q 57.328125 12.15625 50.6875 5.359375 
Q 44.046875 -1.421875 33.015625 -1.421875 
Q 20.359375 -1.421875 13.671875 8.265625 
Q 6.984375 17.96875 6.984375 36.375 
Q 6.984375 53.65625 15.1875 63.9375 
Q 23.390625 74.21875 37.203125 74.21875 
Q 40.921875 74.21875 44.703125 73.484375 
Q 48.484375 72.75 52.59375 71.296875 
z
" id="DejaVuSans-54"/>
      </defs>
      <g style="fill:#262626;" transform="translate(31.145 262.220623)scale(0.1 -0.1)">
       <use xlink:href="#DejaVuSans-54"/>
       <use x="63.623047" xlink:href="#DejaVuSans-48"/>
      </g>
     </g>
    </g>
    <g id="ytick_5">
     <g id="line2d_19">
      <path clip-path="url(#p632d2d7eb9)" d="M 47.37 173.119144 
L 1243.03 173.119144 
" style="fill:none;stroke:#cccccc;stroke-linecap:round;stroke-width:0.8;"/>
     </g>
     <g id="line2d_20"/>
     <g id="text_11">
      <!-- 80 -->
      <defs>
       <path d="M 31.78125 34.625 
Q 24.75 34.625 20.71875 30.859375 
Q 16.703125 27.09375 16.703125 20.515625 
Q 16.703125 13.921875 20.71875 10.15625 
Q 24.75 6.390625 31.78125 6.390625 
Q 38.8125 6.390625 42.859375 10.171875 
Q 46.921875 13.96875 46.921875 20.515625 
Q 46.921875 27.09375 42.890625 30.859375 
Q 38.875 34.625 31.78125 34.625 
z
M 21.921875 38.8125 
Q 15.578125 40.375 12.03125 44.71875 
Q 8.5 49.078125 8.5 55.328125 
Q 8.5 64.0625 14.71875 69.140625 
Q 20.953125 74.21875 31.78125 74.21875 
Q 42.671875 74.21875 48.875 69.140625 
Q 55.078125 64.0625 55.078125 55.328125 
Q 55.078125 49.078125 51.53125 44.71875 
Q 48 40.375 41.703125 38.8125 
Q 48.828125 37.15625 52.796875 32.3125 
Q 56.78125 27.484375 56.78125 20.515625 
Q 56.78125 9.90625 50.3125 4.234375 
Q 43.84375 -1.421875 31.78125 -1.421875 
Q 19.734375 -1.421875 13.25 4.234375 
Q 6.78125 9.90625 6.78125 20.515625 
Q 6.78125 27.484375 10.78125 32.3125 
Q 14.796875 37.15625 21.921875 38.8125 
z
M 18.3125 54.390625 
Q 18.3125 48.734375 21.84375 45.5625 
Q 25.390625 42.390625 31.78125 42.390625 
Q 38.140625 42.390625 41.71875 45.5625 
Q 45.3125 48.734375 45.3125 54.390625 
Q 45.3125 60.0625 41.71875 63.234375 
Q 38.140625 66.40625 31.78125 66.40625 
Q 25.390625 66.40625 21.84375 63.234375 
Q 18.3125 60.0625 18.3125 54.390625 
z
" id="DejaVuSans-56"/>
      </defs>
      <g style="fill:#262626;" transform="translate(31.145 176.918363)scale(0.1 -0.1)">
       <use xlink:href="#DejaVuSans-56"/>
       <use x="63.623047" xlink:href="#DejaVuSans-48"/>
      </g>
     </g>
    </g>
    <g id="ytick_6">
     <g id="line2d_21">
      <path clip-path="url(#p632d2d7eb9)" d="M 47.37 87.816885 
L 1243.03 87.816885 
" style="fill:none;stroke:#cccccc;stroke-linecap:round;stroke-width:0.8;"/>
     </g>
     <g id="line2d_22"/>
     <g id="text_12">
      <!-- 100 -->
      <g style="fill:#262626;" transform="translate(24.7825 91.616104)scale(0.1 -0.1)">
       <use xlink:href="#DejaVuSans-49"/>
       <use x="63.623047" xlink:href="#DejaVuSans-48"/>
       <use x="127.246094" xlink:href="#DejaVuSans-48"/>
      </g>
     </g>
    </g>
    <g id="text_13">
     <!-- -log (pvalue) -->
     <defs>
      <path d="M 4.890625 31.390625 
L 31.203125 31.390625 
L 31.203125 23.390625 
L 4.890625 23.390625 
z
" id="DejaVuSans-45"/>
      <path d="M 9.421875 75.984375 
L 18.40625 75.984375 
L 18.40625 0 
L 9.421875 0 
z
" id="DejaVuSans-108"/>
      <path d="M 45.40625 27.984375 
Q 45.40625 37.75 41.375 43.109375 
Q 37.359375 48.484375 30.078125 48.484375 
Q 22.859375 48.484375 18.828125 43.109375 
Q 14.796875 37.75 14.796875 27.984375 
Q 14.796875 18.265625 18.828125 12.890625 
Q 22.859375 7.515625 30.078125 7.515625 
Q 37.359375 7.515625 41.375 12.890625 
Q 45.40625 18.265625 45.40625 27.984375 
z
M 54.390625 6.78125 
Q 54.390625 -7.171875 48.1875 -13.984375 
Q 42 -20.796875 29.203125 -20.796875 
Q 24.46875 -20.796875 20.265625 -20.09375 
Q 16.0625 -19.390625 12.109375 -17.921875 
L 12.109375 -9.1875 
Q 16.0625 -11.328125 19.921875 -12.34375 
Q 23.78125 -13.375 27.78125 -13.375 
Q 36.625 -13.375 41.015625 -8.765625 
Q 45.40625 -4.15625 45.40625 5.171875 
L 45.40625 9.625 
Q 42.625 4.78125 38.28125 2.390625 
Q 33.9375 0 27.875 0 
Q 17.828125 0 11.671875 7.65625 
Q 5.515625 15.328125 5.515625 27.984375 
Q 5.515625 40.671875 11.671875 48.328125 
Q 17.828125 56 27.875 56 
Q 33.9375 56 38.28125 53.609375 
Q 42.625 51.21875 45.40625 46.390625 
L 45.40625 54.6875 
L 54.390625 54.6875 
z
" id="DejaVuSans-103"/>
      <path d="M 31 75.875 
Q 24.46875 64.65625 21.28125 53.65625 
Q 18.109375 42.671875 18.109375 31.390625 
Q 18.109375 20.125 21.3125 9.0625 
Q 24.515625 -2 31 -13.1875 
L 23.1875 -13.1875 
Q 15.875 -1.703125 12.234375 9.375 
Q 8.59375 20.453125 8.59375 31.390625 
Q 8.59375 42.28125 12.203125 53.3125 
Q 15.828125 64.359375 23.1875 75.875 
z
" id="DejaVuSans-40"/>
      <path d="M 2.984375 54.6875 
L 12.5 54.6875 
L 29.59375 8.796875 
L 46.6875 54.6875 
L 56.203125 54.6875 
L 35.6875 0 
L 23.484375 0 
z
" id="DejaVuSans-118"/>
      <path d="M 34.28125 27.484375 
Q 23.390625 27.484375 19.1875 25 
Q 14.984375 22.515625 14.984375 16.5 
Q 14.984375 11.71875 18.140625 8.90625 
Q 21.296875 6.109375 26.703125 6.109375 
Q 34.1875 6.109375 38.703125 11.40625 
Q 43.21875 16.703125 43.21875 25.484375 
L 43.21875 27.484375 
z
M 52.203125 31.203125 
L 52.203125 0 
L 43.21875 0 
L 43.21875 8.296875 
Q 40.140625 3.328125 35.546875 0.953125 
Q 30.953125 -1.421875 24.3125 -1.421875 
Q 15.921875 -1.421875 10.953125 3.296875 
Q 6 8.015625 6 15.921875 
Q 6 25.140625 12.171875 29.828125 
Q 18.359375 34.515625 30.609375 34.515625 
L 43.21875 34.515625 
L 43.21875 35.40625 
Q 43.21875 41.609375 39.140625 45 
Q 35.0625 48.390625 27.6875 48.390625 
Q 23 48.390625 18.546875 47.265625 
Q 14.109375 46.140625 10.015625 43.890625 
L 10.015625 52.203125 
Q 14.9375 54.109375 19.578125 55.046875 
Q 24.21875 56 28.609375 56 
Q 40.484375 56 46.34375 49.84375 
Q 52.203125 43.703125 52.203125 31.203125 
z
" id="DejaVuSans-97"/>
      <path d="M 8.5 21.578125 
L 8.5 54.6875 
L 17.484375 54.6875 
L 17.484375 21.921875 
Q 17.484375 14.15625 20.5 10.265625 
Q 23.53125 6.390625 29.59375 6.390625 
Q 36.859375 6.390625 41.078125 11.03125 
Q 45.3125 15.671875 45.3125 23.6875 
L 45.3125 54.6875 
L 54.296875 54.6875 
L 54.296875 0 
L 45.3125 0 
L 45.3125 8.40625 
Q 42.046875 3.421875 37.71875 1 
Q 33.40625 -1.421875 27.6875 -1.421875 
Q 18.265625 -1.421875 13.375 4.4375 
Q 8.5 10.296875 8.5 21.578125 
z
M 31.109375 56 
z
" id="DejaVuSans-117"/>
      <path d="M 8.015625 75.875 
L 15.828125 75.875 
Q 23.140625 64.359375 26.78125 53.3125 
Q 30.421875 42.28125 30.421875 31.390625 
Q 30.421875 20.453125 26.78125 9.375 
Q 23.140625 -1.703125 15.828125 -13.1875 
L 8.015625 -13.1875 
Q 14.5 -2 17.703125 9.0625 
Q 20.90625 20.125 20.90625 31.390625 
Q 20.90625 42.671875 17.703125 53.65625 
Q 14.5 64.65625 8.015625 75.875 
z
" id="DejaVuSans-41"/>
     </defs>
     <g style="fill:#262626;" transform="translate(18.702812 313.959219)rotate(-90)scale(0.1 -0.1)">
      <use xlink:href="#DejaVuSans-45"/>
      <use x="36.083984" xlink:href="#DejaVuSans-108"/>
      <use x="63.867188" xlink:href="#DejaVuSans-111"/>
      <use x="125.048828" xlink:href="#DejaVuSans-103"/>
      <use x="188.525391" xlink:href="#DejaVuSans-32"/>
      <use x="220.3125" xlink:href="#DejaVuSans-40"/>
      <use x="259.326172" xlink:href="#DejaVuSans-112"/>
      <use x="322.802734" xlink:href="#DejaVuSans-118"/>
      <use x="381.982422" xlink:href="#DejaVuSans-97"/>
      <use x="443.261719" xlink:href="#DejaVuSans-108"/>
      <use x="471.044922" xlink:href="#DejaVuSans-117"/>
      <use x="534.423828" xlink:href="#DejaVuSans-101"/>
      <use x="595.947266" xlink:href="#DejaVuSans-41"/>
     </g>
    </g>
   </g>
   <g id="line2d_23">
    <path clip-path="url(#p632d2d7eb9)" d="M 101.718182 514.328182 
L 299.126376 514.328182 
L 301.563514 482.045484 
L 304.000652 513.055681 
L 306.43779 510.824547 
L 308.874929 510.966707 
L 311.312067 513.38316 
L 313.749205 512.572938 
L 316.186343 513.538541 
L 318.623481 503.420647 
L 321.06062 510.960068 
L 323.497758 505.991187 
L 325.934896 513.464393 
L 328.372034 513.011678 
L 330.809172 513.565659 
L 333.246311 514.297348 
L 335.683449 513.464393 
L 338.120587 503.831689 
L 340.557725 513.728508 
L 342.994863 505.065853 
L 345.432002 478.481076 
L 347.86914 505.645061 
L 350.306278 501.501811 
L 352.743416 510.711617 
L 355.180554 512.016138 
L 357.617693 512.893003 
L 360.054831 512.203348 
L 362.491969 512.558684 
L 364.929107 512.35889 
L 367.366245 512.612669 
L 369.803384 509.142167 
L 372.240522 510.088418 
L 374.67766 510.586638 
L 377.114798 510.763018 
L 379.551936 513.728508 
L 381.989075 512.22423 
L 384.426213 511.753234 
L 386.863351 513.017086 
L 389.300489 512.709366 
L 391.737627 513.858047 
L 394.174766 512.016138 
L 396.611904 511.12412 
L 399.049042 499.242283 
L 401.48618 513.746577 
L 403.923318 513.699085 
L 406.360457 505.991187 
L 408.797595 511.826794 
L 411.234733 511.629126 
L 413.671871 511.142771 
L 416.109009 505.969629 
L 418.546148 509.736962 
L 420.983286 508.099694 
L 423.420424 513.01509 
L 425.857562 511.88556 
L 428.2947 510.482766 
L 430.731839 513.728508 
L 433.168977 513.470157 
L 438.043253 513.997452 
L 440.480391 506.084499 
L 442.91753 513.967384 
L 445.354668 512.22423 
L 447.791806 513.714607 
L 450.228944 511.961779 
L 452.666082 513.714607 
L 455.103221 508.884135 
L 457.540359 510.375246 
L 459.977497 514.191811 
L 462.414635 496.994587 
L 464.851773 508.958086 
L 467.288912 510.112272 
L 469.72605 507.116652 
L 472.163188 505.359826 
L 474.600326 513.063191 
L 477.037464 497.766842 
L 479.474603 486.392162 
L 481.911741 443.776055 
L 484.348879 497.463124 
L 486.786017 498.772185 
L 489.223155 512.954445 
L 491.660294 488.894933 
L 494.097432 513.661486 
L 496.53457 492.627738 
L 498.971708 482.83353 
L 503.845985 513.176824 
L 506.283123 512.946598 
L 508.720261 512.032261 
L 511.157399 514.09877 
L 513.594537 510.583835 
L 516.031675 505.645061 
L 518.468814 503.231319 
L 520.905952 513.56487 
L 523.34309 508.0607 
L 525.780228 512.72882 
L 528.217366 513.728508 
L 530.654505 504.730564 
L 533.091643 505.511847 
L 535.528781 509.186338 
L 537.965919 505.348712 
L 540.403057 514.065671 
L 542.840196 507.467815 
L 545.277334 497.387227 
L 547.714472 513.885014 
L 550.15161 506.874446 
L 552.588748 506.368641 
L 555.025887 508.321688 
L 557.463025 512.709366 
L 559.900163 504.490787 
L 562.337301 512.17033 
L 564.774439 513.702091 
L 567.211578 511.984659 
L 569.648716 511.961779 
L 572.085854 512.954445 
L 574.522992 513.541048 
L 576.96013 506.994008 
L 579.397269 511.755169 
L 581.834407 513.176824 
L 584.271545 508.664192 
L 586.708683 513.826204 
L 589.145821 511.948741 
L 591.58296 503.831689 
L 594.020098 514.039601 
L 596.457236 511.735249 
L 598.894374 508.026117 
L 601.331512 495.268497 
L 603.768651 512.082027 
L 606.205789 498.772185 
L 608.642927 513.172291 
L 611.080065 511.526582 
L 615.954342 512.505437 
L 618.39148 511.841948 
L 620.828618 511.985965 
L 623.265756 510.869812 
L 625.702894 511.815064 
L 628.140033 514.018613 
L 630.577171 512.169906 
L 633.014309 510.763018 
L 635.451447 513.952749 
L 637.888585 505.448106 
L 640.325724 513.382625 
L 642.762862 514.191153 
L 645.2 512.17033 
L 647.637138 510.869812 
L 650.074276 513.45941 
L 652.511415 513.45941 
L 654.948553 495.923616 
L 657.385691 514.31086 
L 659.822829 503.972865 
L 662.259967 498.679504 
L 664.697106 510.960068 
L 667.134244 510.351114 
L 669.571382 511.526582 
L 672.00852 511.09145 
L 674.445658 509.076363 
L 676.882797 510.196976 
L 679.319935 512.893344 
L 681.757073 512.032261 
L 684.194211 513.573808 
L 686.631349 505.418789 
L 689.068488 513.861972 
L 691.505626 502.008589 
L 693.942764 510.249332 
L 696.379902 476.904147 
L 698.81704 508.972123 
L 701.254179 508.776432 
L 703.691317 513.332421 
L 706.128455 507.406775 
L 708.565593 512.943104 
L 711.002731 512.169906 
L 713.43987 512.943104 
L 715.877008 514.262438 
L 718.314146 510.339181 
L 720.751284 472.683766 
L 723.188422 510.869812 
L 725.625561 511.526582 
L 728.062699 513.39454 
L 730.499837 489.340604 
L 732.936975 504.10928 
L 735.374113 512.893344 
L 737.811252 514.09877 
L 740.24839 504.149429 
L 742.685528 493.290216 
L 745.122666 499.645847 
L 747.559804 503.668525 
L 749.996943 506.171143 
L 752.434081 502.008589 
L 754.871219 511.826794 
L 757.308357 502.19184 
L 759.745495 512.811312 
L 762.182634 510.172227 
L 764.619772 513.804842 
L 767.05691 506.874446 
L 769.494048 513.370389 
L 771.931186 506.271751 
L 774.368325 510.905651 
L 776.805463 493.12759 
L 779.242601 508.599398 
L 781.679739 504.569385 
L 784.116877 511.984659 
L 786.554015 512.224904 
L 788.991154 514.09877 
L 791.428292 510.905651 
L 793.86543 502.659433 
L 796.302568 511.639373 
L 798.739706 510.763018 
L 801.176845 495.057174 
L 803.613983 511.985965 
L 806.051121 513.421193 
L 808.488259 507.793866 
L 810.925397 504.200525 
L 813.362536 513.714607 
L 815.799674 512.791081 
L 818.236812 512.781699 
L 820.67395 513.955553 
L 823.111088 512.650822 
L 825.548227 514.091307 
L 827.985365 510.273604 
L 830.422503 513.656271 
L 832.859641 512.224904 
L 835.296779 512.808758 
L 837.733918 512.743619 
L 840.171056 509.768779 
L 842.608194 510.229134 
L 845.045332 510.960068 
L 847.48247 428.510814 
L 849.919609 463.817829 
L 852.356747 467.704796 
L 854.793885 366.285995 
L 857.231023 501.501811 
L 859.668161 512.946598 
L 862.1053 513.017086 
L 864.542438 362.224373 
L 866.979576 514.091307 
L 869.416714 50.091818 
L 871.853852 217.719549 
L 874.290991 503.208189 
L 876.728129 513.97507 
L 879.165267 441.675792 
L 881.602405 485.331627 
L 884.039543 508.972123 
L 886.476682 503.74293 
L 888.91382 513.45941 
L 891.350958 512.786573 
L 893.788096 471.400959 
L 896.225234 514.101526 
L 898.662373 500.373175 
L 901.099511 503.831689 
L 903.536649 495.258529 
L 905.973787 514.283652 
L 908.410925 513.210755 
L 910.848064 514.171129 
L 913.285202 514.11572 
L 915.72234 506.030282 
L 918.159478 510.960068 
L 920.596616 513.187695 
L 923.033755 513.699085 
L 925.470893 513.169617 
L 927.908031 513.421193 
L 932.782307 512.22423 
L 935.219446 505.889782 
L 937.656584 512.950156 
L 940.093722 513.728508 
L 942.53086 513.199853 
L 944.967998 513.017086 
L 947.405137 513.024956 
L 949.842275 483.513561 
L 952.279413 511.815064 
L 954.716551 507.241354 
L 957.153689 514.298942 
L 959.590828 510.130421 
L 962.027966 513.861972 
L 964.465104 514.09877 
L 966.902242 513.210755 
L 969.33938 494.54417 
L 971.776519 512.781699 
L 974.213657 514.138232 
L 976.650795 510.165551 
L 979.087933 511.88556 
L 981.525071 510.960068 
L 983.96221 513.728508 
L 986.399348 512.957943 
L 988.836486 513.492522 
L 991.273624 510.482766 
L 993.710762 510.869812 
L 996.147901 514.277963 
L 998.585039 511.034109 
L 1001.022177 511.022972 
L 1003.459315 513.45941 
L 1005.896453 511.826794 
L 1008.333592 513.45941 
L 1010.77073 509.140854 
L 1013.207868 513.885014 
L 1015.645006 514.163639 
L 1018.082144 513.066961 
L 1020.519283 513.56487 
L 1022.956421 513.01509 
L 1025.393559 509.736962 
L 1027.830697 512.72882 
L 1030.267835 514.171129 
L 1035.142112 510.273604 
L 1037.57925 514.211717 
L 1040.016388 510.503909 
L 1042.453526 514.064773 
L 1044.890664 513.763528 
L 1047.327803 511.867675 
L 1049.764941 510.72752 
L 1052.202079 512.946598 
L 1054.639217 508.64122 
L 1057.076355 514.328182 
L 1188.681818 514.328182 
L 1188.681818 514.328182 
" style="fill:none;stroke:#66c2a5;stroke-linecap:round;stroke-width:1.5;"/>
   </g>
   <g id="line2d_24">
    <path clip-path="url(#p632d2d7eb9)" d="M 101.718182 514.328182 
L 299.126376 514.328182 
L 301.563514 505.535818 
L 304.000652 504.34835 
L 306.43779 504.112414 
L 308.874929 511.38756 
L 311.312067 511.492098 
L 313.749205 509.800371 
L 316.186343 509.800371 
L 318.623481 507.875857 
L 321.06062 508.145833 
L 323.497758 508.00378 
L 325.934896 510.673968 
L 328.372034 511.460934 
L 330.809172 513.372003 
L 333.246311 510.986575 
L 335.683449 511.177669 
L 338.120587 509.105276 
L 340.557725 500.06465 
L 342.994863 497.69862 
L 345.432002 497.0767 
L 347.86914 496.080142 
L 350.306278 498.035356 
L 352.743416 506.82766 
L 355.180554 508.629652 
L 357.617693 511.240294 
L 360.054831 511.651491 
L 362.491969 511.808848 
L 364.929107 510.929732 
L 372.240522 509.313516 
L 374.67766 509.719216 
L 377.114798 510.591887 
L 379.551936 510.948672 
L 381.989075 511.543724 
L 384.426213 512.007243 
L 389.300489 511.991769 
L 391.737627 511.854513 
L 394.174766 508.704004 
L 396.611904 509.041747 
L 399.049042 508.995427 
L 401.48618 507.417575 
L 403.923318 507.597144 
L 406.360457 510.629459 
L 408.797595 509.808959 
L 411.234733 507.776866 
L 413.671871 508.711773 
L 416.109009 507.715244 
L 418.546148 508.124757 
L 420.983286 508.321106 
L 423.420424 509.400582 
L 428.2947 511.837258 
L 430.731839 512.004778 
L 433.168977 512.651763 
L 435.606115 511.639392 
L 438.043253 511.696296 
L 440.480391 511.38756 
L 442.91753 511.38756 
L 445.354668 510.892809 
L 447.791806 512.685515 
L 450.228944 511.375856 
L 452.666082 510.909112 
L 455.103221 511.013294 
L 457.540359 507.450041 
L 459.977497 505.968239 
L 462.414635 506.305202 
L 464.851773 505.467445 
L 467.288912 502.967585 
L 469.72605 507.242655 
L 472.163188 504.251381 
L 474.600326 498.244871 
L 477.037464 480.698395 
L 479.474603 478.431519 
L 481.911741 473.698117 
L 484.348879 478.597734 
L 486.786017 479.222659 
L 489.223155 499.003552 
L 491.660294 497.703325 
L 494.097432 493.495415 
L 496.53457 488.573017 
L 498.971708 496.125553 
L 501.408846 495.953199 
L 503.845985 501.316159 
L 506.283123 509.135575 
L 508.720261 511.889388 
L 511.157399 510.167915 
L 513.594537 507.658559 
L 516.031675 508.108061 
L 518.468814 506.312453 
L 520.905952 507.009629 
L 523.34309 509.146637 
L 525.780228 509.564049 
L 528.217366 507.450041 
L 530.654505 507.715244 
L 533.091643 505.700744 
L 535.528781 505.751507 
L 537.965919 506.50963 
L 540.403057 504.302321 
L 542.840196 505.826335 
L 545.277334 506.285691 
L 547.714472 504.072222 
L 550.15161 504.196257 
L 552.588748 508.321106 
L 555.025887 505.700744 
L 557.463025 507.197118 
L 559.900163 509.143057 
L 562.337301 510.107328 
L 564.774439 509.87296 
L 567.211578 511.85207 
L 569.648716 512.222792 
L 572.085854 510.685692 
L 574.522992 510.649663 
L 576.96013 510.92899 
L 579.397269 509.800371 
L 581.834407 509.87296 
L 584.271545 511.054796 
L 586.708683 509.146637 
L 589.145821 509.400582 
L 591.58296 510.249226 
L 594.020098 508.679931 
L 596.457236 504.251381 
L 598.894374 506.657102 
L 601.331512 502.499187 
L 603.768651 502.98489 
L 606.205789 503.945598 
L 608.642927 508.280566 
L 611.080065 508.387704 
L 613.517203 511.394103 
L 615.954342 511.085413 
L 620.828618 510.909112 
L 623.265756 511.289027 
L 625.702894 511.38756 
L 628.140033 511.058634 
L 630.577171 511.85207 
L 633.014309 510.512072 
L 635.451447 510.290673 
L 637.888585 510.860303 
L 640.325724 511.173087 
L 642.762862 510.416418 
L 645.2 512.222792 
L 647.637138 512.245005 
L 650.074276 507.976361 
L 652.511415 508.649826 
L 654.948553 506.82766 
L 657.385691 502.880277 
L 659.822829 502.15161 
L 662.259967 505.743496 
L 664.697106 504.756189 
L 667.134244 506.791628 
L 669.571382 509.307545 
L 672.00852 509.133685 
L 674.445658 509.800371 
L 676.882797 509.960541 
L 679.319935 510.685692 
L 681.757073 509.800371 
L 684.194211 510.860303 
L 686.631349 508.114767 
L 689.068488 507.597144 
L 691.505626 498.167502 
L 693.942764 499.180284 
L 696.379902 497.59786 
L 698.81704 500.966717 
L 701.254179 500.109395 
L 703.691317 509.105276 
L 706.128455 509.887955 
L 708.565593 510.973086 
L 711.002731 511.21642 
L 713.43987 511.837258 
L 715.877008 502.499187 
L 718.314146 502.170777 
L 720.751284 501.711475 
L 723.188422 501.420645 
L 725.625561 495.906724 
L 728.062699 503.589707 
L 730.499837 504.112414 
L 732.936975 504.953864 
L 735.374113 502.475108 
L 737.811252 503.339479 
L 740.24839 502.280645 
L 742.685528 499.525148 
L 745.122666 497.111849 
L 747.559804 496.554504 
L 749.996943 501.691684 
L 752.434081 502.280645 
L 754.871219 504.678769 
L 757.308357 505.751507 
L 759.745495 509.03152 
L 762.182634 507.715244 
L 764.619772 510.629459 
L 767.05691 508.975979 
L 769.494048 509.143057 
L 771.931186 503.740477 
L 774.368325 504.112414 
L 776.805463 501.780924 
L 779.242601 503.285669 
L 781.679739 503.70327 
L 784.116877 509.146637 
L 786.554015 509.800371 
L 788.991154 509.274996 
L 791.428292 509.146637 
L 793.86543 508.790107 
L 796.302568 503.70327 
L 798.739706 504.042641 
L 801.176845 507.061935 
L 803.613983 505.968239 
L 806.051121 504.157732 
L 808.488259 509.143057 
L 810.925397 509.313516 
L 813.362536 509.143057 
L 815.799674 510.807426 
L 818.236812 512.729663 
L 820.67395 512.846586 
L 823.111088 512.105139 
L 825.548227 512.375584 
L 827.985365 511.904677 
L 830.422503 511.946017 
L 832.859641 511.589759 
L 835.296779 511.473179 
L 837.733918 510.669829 
L 840.171056 510.290673 
L 842.608194 489.22067 
L 845.045332 474.713599 
L 847.48247 461.998829 
L 849.919609 420.267404 
L 852.356747 417.19271 
L 854.793885 442.427641 
L 857.231023 457.901817 
L 859.668161 427.846632 
L 862.1053 471.192814 
L 864.542438 342.977728 
L 866.979576 258.14585 
L 869.416714 255.804967 
L 871.853852 298.867266 
L 874.290991 276.727488 
L 876.728129 400.772971 
L 879.165267 482.842914 
L 881.602405 482.949866 
L 884.039543 482.842914 
L 886.476682 502.456691 
L 888.91382 499.003552 
L 891.350958 500.723464 
L 893.788096 499.788898 
L 896.225234 496.975377 
L 898.662373 491.512798 
L 901.099511 503.26132 
L 903.536649 502.981016 
L 905.973787 506.786829 
L 908.410925 509.528509 
L 910.848064 511.85207 
L 913.285202 511.015386 
L 918.159478 510.909112 
L 920.596616 510.673968 
L 923.033755 512.331477 
L 925.470893 512.884038 
L 927.908031 512.606406 
L 930.345169 510.773365 
L 932.782307 510.705328 
L 940.093722 511.057827 
L 942.53086 512.791078 
L 944.967998 506.003436 
L 947.405137 505.420675 
L 949.842275 503.70327 
L 952.279413 504.077991 
L 954.716551 503.223766 
L 957.153689 510.673968 
L 959.590828 511.240294 
L 962.027966 512.714434 
L 964.465104 508.04808 
L 966.902242 508.851743 
L 969.33938 508.945782 
L 971.776519 507.715244 
L 974.213657 507.311713 
L 976.650795 511.142796 
L 979.087933 511.394103 
L 981.525071 511.085413 
L 983.96221 511.946017 
L 986.399348 511.593634 
L 988.836486 511.576333 
L 991.273624 511.700286 
L 996.147901 510.673968 
L 998.585039 511.38756 
L 1001.022177 511.593634 
L 1003.459315 511.392023 
L 1005.896453 510.961058 
L 1008.333592 511.651491 
L 1010.77073 511.85207 
L 1013.207868 512.202418 
L 1015.645006 512.222792 
L 1018.082144 513.357971 
L 1020.519283 512.097707 
L 1022.956421 511.700286 
L 1025.393559 511.996149 
L 1027.830697 511.651491 
L 1030.267835 510.973716 
L 1032.704974 512.097707 
L 1035.142112 511.549745 
L 1037.57925 511.517575 
L 1042.453526 512.331477 
L 1044.890664 511.394103 
L 1047.327803 512.007243 
L 1049.764941 510.7356 
L 1052.202079 510.886073 
L 1054.639217 511.477694 
L 1057.076355 514.328182 
L 1188.681818 514.328182 
L 1188.681818 514.328182 
" style="fill:none;stroke:#fc8d62;stroke-linecap:round;stroke-width:1.5;"/>
   </g>
   <g id="line2d_25"/>
   <g id="line2d_26"/>
   <g id="line2d_27">
    <path clip-path="url(#p632d2d7eb9)" d="M 47.37 505.797956 
L 1243.03 505.797956 
" style="fill:none;stroke:#808080;stroke-dasharray:1.5,2.475;stroke-dashoffset:0;stroke-width:1.5;"/>
   </g>
   <g id="patch_3">
    <path d="M 47.37 537.54 
L 47.37 26.88 
" style="fill:none;stroke:#cccccc;stroke-linecap:square;stroke-linejoin:miter;"/>
   </g>
   <g id="patch_4">
    <path d="M 1243.03 537.54 
L 1243.03 26.88 
" style="fill:none;stroke:#cccccc;stroke-linecap:square;stroke-linejoin:miter;"/>
   </g>
   <g id="patch_5">
    <path d="M 47.37 537.54 
L 1243.03 537.54 
" style="fill:none;stroke:#cccccc;stroke-linecap:square;stroke-linejoin:miter;"/>
   </g>
   <g id="patch_6">
    <path d="M 47.37 26.88 
L 1243.03 26.88 
" style="fill:none;stroke:#cccccc;stroke-linecap:square;stroke-linejoin:miter;"/>
   </g>
   <g id="text_14">
    <!-- ENST00000636484 -->
    <defs>
     <path d="M 9.8125 72.90625 
L 55.90625 72.90625 
L 55.90625 64.59375 
L 19.671875 64.59375 
L 19.671875 43.015625 
L 54.390625 43.015625 
L 54.390625 34.71875 
L 19.671875 34.71875 
L 19.671875 8.296875 
L 56.78125 8.296875 
L 56.78125 0 
L 9.8125 0 
z
" id="DejaVuSans-69"/>
     <path d="M 9.8125 72.90625 
L 23.09375 72.90625 
L 55.421875 11.921875 
L 55.421875 72.90625 
L 64.984375 72.90625 
L 64.984375 0 
L 51.703125 0 
L 19.390625 60.984375 
L 19.390625 0 
L 9.8125 0 
z
" id="DejaVuSans-78"/>
     <path d="M 53.515625 70.515625 
L 53.515625 60.890625 
Q 47.90625 63.578125 42.921875 64.890625 
Q 37.9375 66.21875 33.296875 66.21875 
Q 25.25 66.21875 20.875 63.09375 
Q 16.5 59.96875 16.5 54.203125 
Q 16.5 49.359375 19.40625 46.890625 
Q 22.3125 44.4375 30.421875 42.921875 
L 36.375 41.703125 
Q 47.40625 39.59375 52.65625 34.296875 
Q 57.90625 29 57.90625 20.125 
Q 57.90625 9.515625 50.796875 4.046875 
Q 43.703125 -1.421875 29.984375 -1.421875 
Q 24.8125 -1.421875 18.96875 -0.25 
Q 13.140625 0.921875 6.890625 3.21875 
L 6.890625 13.375 
Q 12.890625 10.015625 18.65625 8.296875 
Q 24.421875 6.59375 29.984375 6.59375 
Q 38.421875 6.59375 43.015625 9.90625 
Q 47.609375 13.234375 47.609375 19.390625 
Q 47.609375 24.75 44.3125 27.78125 
Q 41.015625 30.8125 33.5 32.328125 
L 27.484375 33.5 
Q 16.453125 35.6875 11.515625 40.375 
Q 6.59375 45.0625 6.59375 53.421875 
Q 6.59375 63.09375 13.40625 68.65625 
Q 20.21875 74.21875 32.171875 74.21875 
Q 37.3125 74.21875 42.625 73.28125 
Q 47.953125 72.359375 53.515625 70.515625 
z
" id="DejaVuSans-83"/>
     <path d="M -0.296875 72.90625 
L 61.375 72.90625 
L 61.375 64.59375 
L 35.5 64.59375 
L 35.5 0 
L 25.59375 0 
L 25.59375 64.59375 
L -0.296875 64.59375 
z
" id="DejaVuSans-84"/>
    </defs>
    <g style="fill:#262626;" transform="translate(587.45375 20.88)scale(0.12 -0.12)">
     <use xlink:href="#DejaVuSans-69"/>
     <use x="63.183594" xlink:href="#DejaVuSans-78"/>
     <use x="137.988281" xlink:href="#DejaVuSans-83"/>
     <use x="201.464844" xlink:href="#DejaVuSans-84"/>
     <use x="262.548828" xlink:href="#DejaVuSans-48"/>
     <use x="326.171875" xlink:href="#DejaVuSans-48"/>
     <use x="389.794922" xlink:href="#DejaVuSans-48"/>
     <use x="453.417969" xlink:href="#DejaVuSans-48"/>
     <use x="517.041016" xlink:href="#DejaVuSans-48"/>
     <use x="580.664062" xlink:href="#DejaVuSans-54"/>
     <use x="644.287109" xlink:href="#DejaVuSans-51"/>
     <use x="707.910156" xlink:href="#DejaVuSans-54"/>
     <use x="771.533203" xlink:href="#DejaVuSans-52"/>
     <use x="835.15625" xlink:href="#DejaVuSans-56"/>
     <use x="898.779297" xlink:href="#DejaVuSans-52"/>
    </g>
   </g>
   <g id="legend_1">
    <g id="line2d_28">
     <path d="M 1252.03 39.978437 
L 1272.03 39.978437 
" style="fill:none;stroke:#66c2a5;stroke-linecap:round;stroke-width:1.5;"/>
    </g>
    <g id="line2d_29"/>
    <g id="text_15">
     <!-- GMM_logit_pvalue -->
     <defs>
      <path d="M 59.515625 10.40625 
L 59.515625 29.984375 
L 43.40625 29.984375 
L 43.40625 38.09375 
L 69.28125 38.09375 
L 69.28125 6.78125 
Q 63.578125 2.734375 56.6875 0.65625 
Q 49.8125 -1.421875 42 -1.421875 
Q 24.90625 -1.421875 15.25 8.5625 
Q 5.609375 18.5625 5.609375 36.375 
Q 5.609375 54.25 15.25 64.234375 
Q 24.90625 74.21875 42 74.21875 
Q 49.125 74.21875 55.546875 72.453125 
Q 61.96875 70.703125 67.390625 67.28125 
L 67.390625 56.78125 
Q 61.921875 61.421875 55.765625 63.765625 
Q 49.609375 66.109375 42.828125 66.109375 
Q 29.4375 66.109375 22.71875 58.640625 
Q 16.015625 51.171875 16.015625 36.375 
Q 16.015625 21.625 22.71875 14.15625 
Q 29.4375 6.6875 42.828125 6.6875 
Q 48.046875 6.6875 52.140625 7.59375 
Q 56.25 8.5 59.515625 10.40625 
z
" id="DejaVuSans-71"/>
      <path d="M 9.8125 72.90625 
L 24.515625 72.90625 
L 43.109375 23.296875 
L 61.8125 72.90625 
L 76.515625 72.90625 
L 76.515625 0 
L 66.890625 0 
L 66.890625 64.015625 
L 48.09375 14.015625 
L 38.1875 14.015625 
L 19.390625 64.015625 
L 19.390625 0 
L 9.8125 0 
z
" id="DejaVuSans-77"/>
      <path d="M 50.984375 -16.609375 
L 50.984375 -23.578125 
L -0.984375 -23.578125 
L -0.984375 -16.609375 
z
" id="DejaVuSans-95"/>
     </defs>
     <g style="fill:#262626;" transform="translate(1280.03 43.478437)scale(0.1 -0.1)">
      <use xlink:href="#DejaVuSans-71"/>
      <use x="77.490234" xlink:href="#DejaVuSans-77"/>
      <use x="163.769531" xlink:href="#DejaVuSans-77"/>
      <use x="250.048828" xlink:href="#DejaVuSans-95"/>
      <use x="300.048828" xlink:href="#DejaVuSans-108"/>
      <use x="327.832031" xlink:href="#DejaVuSans-111"/>
      <use x="389.013672" xlink:href="#DejaVuSans-103"/>
      <use x="452.490234" xlink:href="#DejaVuSans-105"/>
      <use x="480.273438" xlink:href="#DejaVuSans-116"/>
      <use x="519.482422" xlink:href="#DejaVuSans-95"/>
      <use x="569.482422" xlink:href="#DejaVuSans-112"/>
      <use x="632.958984" xlink:href="#DejaVuSans-118"/>
      <use x="692.138672" xlink:href="#DejaVuSans-97"/>
      <use x="753.417969" xlink:href="#DejaVuSans-108"/>
      <use x="781.201172" xlink:href="#DejaVuSans-117"/>
      <use x="844.580078" xlink:href="#DejaVuSans-101"/>
     </g>
    </g>
    <g id="line2d_30">
     <path d="M 1252.03 54.934687 
L 1272.03 54.934687 
" style="fill:none;stroke:#fc8d62;stroke-linecap:round;stroke-width:1.5;"/>
    </g>
    <g id="line2d_31"/>
    <g id="text_16">
     <!-- GMM_logit_pvalue_context_2 -->
     <defs>
      <path d="M 54.890625 54.6875 
L 35.109375 28.078125 
L 55.90625 0 
L 45.3125 0 
L 29.390625 21.484375 
L 13.484375 0 
L 2.875 0 
L 24.125 28.609375 
L 4.6875 54.6875 
L 15.28125 54.6875 
L 29.78125 35.203125 
L 44.28125 54.6875 
z
" id="DejaVuSans-120"/>
     </defs>
     <g style="fill:#262626;" transform="translate(1280.03 58.434687)scale(0.1 -0.1)">
      <use xlink:href="#DejaVuSans-71"/>
      <use x="77.490234" xlink:href="#DejaVuSans-77"/>
      <use x="163.769531" xlink:href="#DejaVuSans-77"/>
      <use x="250.048828" xlink:href="#DejaVuSans-95"/>
      <use x="300.048828" xlink:href="#DejaVuSans-108"/>
      <use x="327.832031" xlink:href="#DejaVuSans-111"/>
      <use x="389.013672" xlink:href="#DejaVuSans-103"/>
      <use x="452.490234" xlink:href="#DejaVuSans-105"/>
      <use x="480.273438" xlink:href="#DejaVuSans-116"/>
      <use x="519.482422" xlink:href="#DejaVuSans-95"/>
      <use x="569.482422" xlink:href="#DejaVuSans-112"/>
      <use x="632.958984" xlink:href="#DejaVuSans-118"/>
      <use x="692.138672" xlink:href="#DejaVuSans-97"/>
      <use x="753.417969" xlink:href="#DejaVuSans-108"/>
      <use x="781.201172" xlink:href="#DejaVuSans-117"/>
      <use x="844.580078" xlink:href="#DejaVuSans-101"/>
      <use x="906.103516" xlink:href="#DejaVuSans-95"/>
      <use x="956.103516" xlink:href="#DejaVuSans-99"/>
      <use x="1011.083984" xlink:href="#DejaVuSans-111"/>
      <use x="1072.265625" xlink:href="#DejaVuSans-110"/>
      <use x="1135.644531" xlink:href="#DejaVuSans-116"/>
      <use x="1174.853516" xlink:href="#DejaVuSans-101"/>
      <use x="1236.361328" xlink:href="#DejaVuSans-120"/>
      <use x="1295.541016" xlink:href="#DejaVuSans-116"/>
      <use x="1334.75" xlink:href="#DejaVuSans-95"/>
      <use x="1384.75" xlink:href="#DejaVuSans-50"/>
     </g>
    </g>
    <g id="line2d_32">
     <path d="M 1252.03 69.890937 
L 1272.03 69.890937 
" style="fill:none;stroke:#808080;stroke-dasharray:1.5,2.475;stroke-dashoffset:0;stroke-width:1.5;"/>
    </g>
    <g id="line2d_33"/>
    <g id="text_17">
     <!-- pvalue=0.01 -->
     <defs>
      <path d="M 10.59375 45.40625 
L 73.1875 45.40625 
L 73.1875 37.203125 
L 10.59375 37.203125 
z
M 10.59375 25.484375 
L 73.1875 25.484375 
L 73.1875 17.1875 
L 10.59375 17.1875 
z
" id="DejaVuSans-61"/>
      <path d="M 10.6875 12.40625 
L 21 12.40625 
L 21 0 
L 10.6875 0 
z
" id="DejaVuSans-46"/>
     </defs>
     <g style="fill:#262626;" transform="translate(1280.03 73.390937)scale(0.1 -0.1)">
      <use xlink:href="#DejaVuSans-112"/>
      <use x="63.476562" xlink:href="#DejaVuSans-118"/>
      <use x="122.65625" xlink:href="#DejaVuSans-97"/>
      <use x="183.935547" xlink:href="#DejaVuSans-108"/>
      <use x="211.71875" xlink:href="#DejaVuSans-117"/>
      <use x="275.097656" xlink:href="#DejaVuSans-101"/>
      <use x="336.621094" xlink:href="#DejaVuSans-61"/>
      <use x="420.410156" xlink:href="#DejaVuSans-48"/>
      <use x="484.033203" xlink:href="#DejaVuSans-46"/>
      <use x="515.820312" xlink:href="#DejaVuSans-48"/>
      <use x="579.443359" xlink:href="#DejaVuSans-49"/>
     </g>
    </g>
   </g>
  </g>
 </g>
 <defs>
  <clipPath id="p632d2d7eb9">
   <rect height="510.66" width="1195.66" x="47.37" y="26.88"/>
  </clipPath>
 </defs>
</svg>
